<svg width="80" height="80" viewBox="0 0 80 80" fill="none" xmlns="http://www.w3.org/2000/svg">
<path d="M49 58H30M49 58H53M49 58V48M49 26V20C49 17.7909 47.2091 16 45 16H6C3.79086 16 2 17.7909 2 20V35M49 26V35M49 26H53H61.5842C62.4807 26 63.3301 26.4009 63.9 27.0929L76.3158 42.1692C76.7581 42.7063 77 43.3805 77 44.0763V58H73M10 58H2V48" stroke="#FFB240" stroke-width="2" stroke-linecap="round"/>
<path d="M70 44H56C55.4477 44 55 43.5523 55 43V31" stroke="#E43232" stroke-width="2" stroke-linecap="round"/>
<circle cx="63" cy="58" r="6" stroke="#FFB240" stroke-width="2"/>
<path d="M49 44H2M2 39H49" stroke="#E43232" stroke-width="2" stroke-linecap="round"/>
<circle cx="20" cy="58" r="6" stroke="#FFB240" stroke-width="2"/>
</svg>
