<svg width="106" height="236" viewBox="0 0 106 236" fill="none" xmlns="http://www.w3.org/2000/svg">
<path d="M106 39H77C75.8954 39 75 38.1046 75 37V18C75 14.134 71.866 11 68 11V11M106 44H77C75.8954 44 75 44.8954 75 46V194C75 195.105 75.8954 196 77 196H106M106 201H77C75.8954 201 75 201.895 75 203V225C75 230.523 70.5228 235 65 235H17C13.6863 235 11 232.314 11 229V229" stroke="#E43232" stroke-width="2"/>
<rect x="1" y="1" width="67" height="228" rx="7" stroke="#FFB240" stroke-width="2"/>
<path d="M41.6069 42.4046L49.0179 33.2592C50.0774 31.9517 49.1469 30 47.464 30H44.5M44.5 103L46.0015 107.515C46.2732 108.333 47.0379 108.884 47.8993 108.884H53.8654C55.2538 108.884 56.2198 107.504 55.7446 106.2L45.815 78.9422M46.5 197.994H47.1676C48.2722 197.994 49.1676 198.89 49.1676 199.994V203.908C49.1676 205.012 48.2722 205.908 47.1676 205.908H27C25.8954 205.908 25 205.012 25 203.908V201M45.3179 193.5V189.514C45.3179 188.41 44.4225 187.514 43.3179 187.514H42M42 183.879H46.7399C47.8445 183.879 48.7399 182.983 48.7399 181.879V177.965C48.7399 176.861 47.8445 175.965 46.7399 175.965H45.5M52 132.5C54.8117 134.808 56 138.082 56 141.711C56 148.384 50.3965 153.859 42.3121 154.329V154.965C42.3121 156.622 40.969 157.965 39.3121 157.965H35.6879C34.031 157.965 32.6879 156.622 32.6879 154.965V154.329C26.021 153.941 21.0413 150.15 19.5 145.09M25.9615 103.5L24.9779 106.2C24.5027 107.504 25.4687 108.884 26.8571 108.884H32.7029C33.6213 108.884 34.4217 108.259 34.6436 107.368L35.7312 103H41M29.5 30H30.6243C31.7288 30 32.6243 30.8954 32.6243 32V32M23 55V56.9422C23 58.5991 24.3431 59.9422 26 59.9422H29.6243C31.2811 59.9422 32.6243 58.5991 32.6243 56.9422V52.6705L35.1908 49.6763L40.7257 58.5322C41.2739 59.4093 42.2353 59.9422 43.2697 59.9422H47.1157C49.469 59.9422 50.9061 57.3562 49.6632 55.3578L47.0607 51.1734" stroke="#E43232" stroke-width="2"/>
<path d="M20 51.9422C20 53.5991 21.3431 54.9422 23 54.9422H26.6243C28.2811 54.9422 29.6243 53.5991 29.6243 51.9422V47.6705L32.1908 44.6763L37.7257 53.5322C38.2739 54.4093 39.2353 54.9422 40.2697 54.9422H44.1157C46.469 54.9422 47.9061 52.3562 46.6632 50.3578L38.6069 37.4046L44.6974 29.8887C46.2866 27.9275 44.8909 25 42.3666 25H39.3932C38.4898 25 37.6346 25.4071 37.0649 26.1082L29.6243 35.2659V28C29.6243 26.3431 28.2811 25 26.6243 25H23C21.3431 25 20 26.3431 20 28V51.9422Z" stroke="#FFB240" stroke-width="2"/>
<path d="M31.9017 90.4798L34.4682 82.1387L36.8208 90.4798H31.9017ZM18.9733 100.318C18.5001 101.622 19.466 103 20.8534 103H26.7565C27.6498 103 28.4348 102.408 28.6798 101.548L29.9769 97H38.7457L40.0427 101.548C40.2877 102.408 41.0727 103 41.966 103H47.8692C49.2565 103 50.2225 101.622 49.7492 100.318L40.2932 74.26C40.0062 73.4689 39.2547 72.9422 38.4132 72.9422H30.3094C29.4679 72.9422 28.7164 73.4689 28.4293 74.26L18.9733 100.318Z" stroke="#FFB240" stroke-width="2"/>
<path d="M29.9017 139.444C29.9017 140.618 28.8423 141.57 27.8437 140.952C26.5119 140.126 25.6243 138.62 25.6243 136.711C25.6243 134.802 26.5119 133.296 27.8437 132.47C28.8423 131.852 29.9017 132.804 29.9017 133.978V139.444ZM29.6879 149.965C29.6879 151.622 31.031 152.965 32.6879 152.965H36.3121C37.969 152.965 39.3121 151.622 39.3121 149.965V149.329C47.3965 148.859 53 143.384 53 136.711C53 130.038 47.3965 124.563 39.3121 124.092V123.884C39.3121 122.228 37.969 120.884 36.3121 120.884H32.6879C31.031 120.884 29.6879 122.228 29.6879 123.884V124.092C21.6035 124.563 16 130.038 16 136.711C16 143.384 21.6035 148.859 29.6879 149.329V149.965ZM39.0983 133.978C39.0983 132.804 40.1577 131.852 41.1563 132.47C42.4881 133.296 43.3757 134.802 43.3757 136.711C43.3757 138.62 42.4881 140.126 41.1563 140.952C40.1577 141.57 39.0983 140.618 39.0983 139.444V133.978Z" stroke="#FFB240" stroke-width="2"/>
<path d="M22 198.908C22 200.012 22.8954 200.908 24 200.908H44.1676C45.2722 200.908 46.1676 200.012 46.1676 198.908V194.994C46.1676 193.89 45.2722 192.994 44.1676 192.994H31.6243V189.358H40.3179C41.4225 189.358 42.3179 188.463 42.3179 187.358V184.514C42.3179 183.41 41.4225 182.514 40.3179 182.514H31.6243V178.879H43.7399C44.8445 178.879 45.7399 177.983 45.7399 176.879V172.965C45.7399 171.861 44.8445 170.965 43.7399 170.965H24C22.8954 170.965 22 171.861 22 172.965V198.908Z" stroke="#FFB240" stroke-width="2"/>
</svg>
