<svg width="237" height="119" viewBox="0 0 237 119" fill="none" xmlns="http://www.w3.org/2000/svg">
<path d="M40 45L40 6.27434e-06M45 45L45 6.05578e-06M197 45L197 -5.88346e-07M202 45L202 -8.06903e-07M9 113V113C9 115.761 11.2386 118 14 118L223 118C230.18 118 236 112.18 236 105L236 59C236 55.134 232.866 52 229 52V52" stroke="#E43232" stroke-width="2"/>
<rect x="1" y="112" width="67" height="228" rx="7" transform="rotate(-90 1 112)" stroke="#FFB240" stroke-width="2"/>
<path d="M155.426 73.6153C158.237 75.9234 159.426 79.1978 159.426 82.8263C159.426 89.4991 153.822 94.9742 145.738 95.4448V96.0806C145.738 97.7374 144.395 99.0806 142.738 99.0806H139.114C137.457 99.0806 136.114 97.7374 136.114 96.0806V95.4448C129.447 95.0567 124.467 91.2653 122.926 86.2054" stroke="#E43232" stroke-width="2"/>
<path d="M133.328 80.5592C133.328 81.7339 132.268 82.6861 131.27 82.0673C129.938 81.2419 129.05 79.736 129.05 77.8266C129.05 75.9173 129.938 74.4114 131.27 73.586C132.268 72.9672 133.328 73.9193 133.328 75.0941V80.5592ZM133.114 91.081C133.114 92.7378 134.457 94.081 136.114 94.081H139.738C141.395 94.081 142.738 92.7378 142.738 91.081V90.4451C150.822 89.9746 156.426 84.4995 156.426 77.8266C156.426 71.1538 150.822 65.6786 142.738 65.2081V65C142.738 63.3432 141.395 62 139.738 62L136.114 62C134.457 62 133.114 63.3432 133.114 65V65.2081C125.029 65.6786 119.426 71.1538 119.426 77.8266C119.426 84.4995 125.029 89.9746 133.114 90.4451V91.081ZM142.524 75.0941C142.524 73.9193 143.583 72.9672 144.582 73.586C145.914 74.4114 146.802 75.9173 146.802 77.8266C146.802 79.736 145.914 81.2419 144.582 82.0673C143.583 82.6861 142.524 81.734 142.524 80.5592V75.0941Z" stroke="#FFB240" stroke-width="2"/>
<path d="M98.0508 92.0578L99.5522 96.5733C99.824 97.3907 100.589 97.9422 101.45 97.9422L107.416 97.9422C108.805 97.9422 109.771 96.5622 109.295 95.2577L99.3658 68M79.5122 92.5578L78.5287 95.2577C78.0535 96.5622 79.0195 97.9422 80.4079 97.9422L86.2536 97.9422C87.1721 97.9422 87.9724 97.3167 88.1944 96.4255L89.282 92.0578H94.5508" stroke="#E43232" stroke-width="2"/>
<path d="M85.4525 79.5376L88.019 71.1966L90.3716 79.5376H85.4525ZM72.5241 89.3756C72.0509 90.6798 73.0168 92.0578 74.4042 92.0578L80.3073 92.0578C81.2006 92.0578 81.9856 91.4654 82.2306 90.6063L83.5277 86.0578H92.2964L93.5935 90.6063C93.8385 91.4654 94.6235 92.0578 95.5168 92.0578L101.42 92.0578C102.807 92.0578 103.773 90.6798 103.3 89.3756L93.844 63.3178C93.557 62.5268 92.8055 62 91.964 62L83.8601 62C83.0186 62 82.2672 62.5268 81.9801 63.3178L72.5241 89.3756Z" stroke="#FFB240" stroke-width="2"/>
<path d="M199.352 89.0289L200.019 89.0289C201.124 89.0289 202.019 89.9244 202.019 91.0289V94.9422C202.019 96.0468 201.124 96.9422 200.019 96.9422L179.852 96.9422C178.747 96.9422 177.852 96.0468 177.852 94.9422V92.0347M198.169 84.5347V80.5492C198.169 79.4446 197.274 78.5492 196.169 78.5492H194.852M194.852 74.9133L199.591 74.9133C200.696 74.9133 201.591 74.0179 201.591 72.9133V69C201.591 67.8955 200.696 67 199.591 67L198.352 67" stroke="#E43232" stroke-width="2"/>
<path d="M174.852 89.9422C174.852 91.0468 175.747 91.9422 176.852 91.9422L197.019 91.9422C198.124 91.9422 199.019 91.0468 199.019 89.9422V86.0289C199.019 84.9244 198.124 84.0289 197.019 84.0289L184.476 84.0289V80.3931L193.169 80.3931C194.274 80.3931 195.169 79.4977 195.169 78.3931V75.5492C195.169 74.4446 194.274 73.5492 193.169 73.5492L184.476 73.5492L184.476 69.9133L196.591 69.9133C197.696 69.9133 198.591 69.0179 198.591 67.9133V64C198.591 62.8955 197.696 62 196.591 62L176.852 62C175.747 62 174.852 62.8955 174.852 64L174.852 89.9422Z" stroke="#FFB240" stroke-width="2"/>
<path d="M47.8218 79.4047L55.2328 70.2592C56.2923 68.9517 55.3617 67 53.6789 67H50.7148M35.7148 67H36.8391C37.9437 67 38.8391 67.8955 38.8391 69V69M29.2148 92L29.2148 93.9422C29.2148 95.5991 30.558 96.9422 32.2148 96.9422L35.8391 96.9422C37.496 96.9422 38.8391 95.5991 38.8391 93.9422V89.6706L41.4056 86.6763L46.9405 95.5322C47.4887 96.4094 48.4502 96.9422 49.4845 96.9422L53.3305 96.9422C55.6839 96.9422 57.1209 94.3562 55.878 92.3578L53.2755 88.1734" stroke="#E43232" stroke-width="2"/>
<path d="M26.2148 88.9422C26.2148 90.5991 27.558 91.9422 29.2148 91.9422L32.8391 91.9422C34.496 91.9422 35.8391 90.5991 35.8391 88.9422V84.6706L38.4056 81.6763L43.9405 90.5322C44.4887 91.4094 45.4502 91.9422 46.4845 91.9422L50.3305 91.9422C52.6839 91.9422 54.1209 89.3562 52.878 87.3578L44.8218 74.4047L50.9122 66.8888C52.5015 64.9276 51.1057 62 48.5814 62H45.6081C44.7047 62 43.8494 62.4071 43.2797 63.1083L35.8391 72.2659L35.8391 65C35.8391 63.3432 34.496 62 32.8391 62L29.2148 62C27.558 62 26.2148 63.3432 26.2148 65L26.2148 88.9422Z" stroke="#FFB240" stroke-width="2"/>
</svg>
