<svg width="80" height="80" viewBox="0 0 80 80" fill="none" xmlns="http://www.w3.org/2000/svg">
<path d="M24.0298 19.5787C23.0003 18.778 23.0003 17.222 24.0298 16.4213L38.7721 4.95502C39.4943 4.39329 40.5057 4.39329 41.2279 4.95502L55.9702 16.4213C56.9997 17.222 56.9997 18.778 55.9702 19.5787L41.2279 31.045C40.5057 31.6067 39.4943 31.6067 38.7721 31.045L24.0298 19.5787Z" stroke="#E43232" stroke-width="2"/>
<path d="M27 29.5L24.2196 31.4463C23.1169 32.2182 23.0762 33.837 24.1387 34.6634L38.7721 46.045C39.4943 46.6067 40.5057 46.6067 41.2279 46.045L55.9702 34.5787C56.9997 33.778 56.9997 32.222 55.9702 31.4213L53.5 29.5" stroke="#E43232" stroke-width="2"/>
<path d="M27 22L24.2196 23.9463C23.1169 24.7182 23.0762 26.337 24.1387 27.1634L38.7721 38.545C39.4943 39.1067 40.5057 39.1067 41.2279 38.545L55.8613 27.1634C56.9238 26.337 56.8831 24.7182 55.7804 23.9463L53 22" stroke="#E43232" stroke-width="2"/>
<path d="M19 18H10C6.68629 18 4 20.6863 4 24V53M61 18H70C73.3137 18 76 20.6863 76 24V53M33 64H7C5.34315 64 4 62.6569 4 61V57H76V61C76 62.6569 74.6569 64 73 64H47M33 64V75H19H47M33 64H47M61 75H47M47 75V64" stroke="#FFB240" stroke-width="2" stroke-linecap="round"/>
</svg>
