<svg width="88" height="88" viewBox="0 0 88 88" fill="none" xmlns="http://www.w3.org/2000/svg">
<path fill-rule="evenodd" clip-rule="evenodd" d="M70.2398 69.9402L71.266 70.995L70.4018 71.8336C70.0658 72.1598 69.6018 72.1627 69.3132 71.8652C69.0246 71.5677 69.04 71.1048 69.376 70.7786L70.2398 69.9402ZM70.7673 66.1651L67.503 69.3342C65.9669 70.8254 65.9398 72.7163 67.1062 73.9155C68.2726 75.1147 70.1654 75.1408 71.7015 73.6495L72.8053 72.5778L73.4118 73.201L70.4355 76.0905L72.1613 77.8643L77.2977 72.8778L70.7673 66.1651ZM62.8823 73.1277L56.1426 76.5569L57.2663 78.7611L61.322 76.6975L61.8382 77.7103L58.8562 79.2276L59.8279 81.1338L62.81 79.6166L63.3264 80.6293L59.3899 82.6321L60.5135 84.8362L67.1339 81.4677L62.8823 73.1277ZM47.4766 81.9566C47.6225 81.7261 47.7956 81.5139 47.9921 81.3245C48.4132 80.9049 48.9516 80.6224 49.5364 80.5143C50.8556 80.286 52.0139 81.0898 52.2331 82.3545C52.4523 83.6193 51.632 84.7659 50.3132 84.9946C49.7339 85.0907 49.1392 85.0038 48.6118 84.746C48.373 84.6352 48.1512 84.4908 47.9533 84.3172L46.5038 86.5362C46.8529 86.8267 47.2421 87.0655 47.6593 87.2454C48.6542 87.6929 49.7631 87.8232 50.835 87.6187C53.8557 87.0957 55.6686 84.5425 55.2006 81.8418C54.7325 79.141 52.1657 77.3451 49.1452 77.8688C48.0562 78.0374 47.0431 78.5296 46.2378 79.2814C45.8945 79.5937 45.6 79.9558 45.3643 80.3555L47.4766 81.9566ZM42.8187 78.7629L39.8467 78.2765L38.7743 84.8078L36.0669 84.3656L37.139 77.8344L34.1663 77.3484L32.6501 86.5849L41.3026 88L42.8187 78.7629ZM32.0766 76.789C31.9988 76.6814 31.9105 76.5818 31.8131 76.4916C31.5614 76.2516 31.279 76.0459 30.9732 75.8798C29.1535 74.8845 27.155 75.468 24.5497 80.218L23.1416 79.4472L26.3249 73.642L23.6833 72.1972L19.1809 80.4069L25.8141 84.0351L27.2679 81.3844C28.7399 78.6991 29.6608 78.4399 30.3535 78.8189C30.47 78.8815 30.5742 78.9646 30.6613 79.064C30.7004 79.1016 30.7334 79.1451 30.759 79.1929L32.0766 76.789ZM16.2122 70.4689L13.7879 71.6838L13.7429 71.6343L15.174 69.3335L16.2122 70.4689ZM22.0119 71.0638L19.8457 68.6943L18.1503 69.5166L16.3015 67.4919L17.275 65.88L15.1087 63.5103L10.4892 72.3387L12.7903 74.8567L22.0119 71.0638ZM13.8717 60.8264L12.5232 58.1366L6.59835 61.1009L5.49046 58.8888L3.03615 60.1166L6.60176 67.2301L9.05608 66.0022L7.94686 63.7907L13.8717 60.8264ZM10.6134 53.6665L10.1526 50.693L6.77812 51.2164L6.34766 48.4414L9.72218 47.9179L9.26041 44.9457L0 46.3812L0.461771 49.3534L3.70161 48.8515L4.1334 51.6259L0.892224 52.1284L1.35267 55.1013L10.6134 53.6665ZM5.18912 38.4271C4.74824 38.3369 4.34409 38.118 4.02777 37.7983C3.71144 37.4785 3.49716 37.0723 3.412 36.6308C3.32685 36.1894 3.37465 35.7326 3.54937 35.3183C3.72408 34.904 4.01786 34.5506 4.39356 34.303C4.76926 34.0554 5.21 33.9247 5.66006 33.9273C6.11012 33.9298 6.54927 34.0657 6.922 34.3176C7.29472 34.5695 7.58427 34.9262 7.75404 35.3425C7.92382 35.7588 7.96618 36.2161 7.87577 36.6565C7.82002 36.9512 7.70561 37.2316 7.5393 37.4813C7.37299 37.731 7.15817 37.9447 6.90761 38.1099C6.65706 38.2751 6.37585 38.3884 6.08067 38.443C5.78549 38.4976 5.48236 38.4924 5.18924 38.4278L5.18912 38.4271ZM4.58472 41.3743C7.27303 41.9244 9.88275 40.1928 10.4983 37.1932C11.1139 34.1935 9.39773 31.5756 6.70943 31.0254C4.02112 30.4753 1.41005 32.2075 0.794522 35.2073C0.178989 38.2071 1.89661 40.8248 4.58485 41.3749L4.58472 41.3743ZM17.0675 18.943L16.0092 17.9206L16.8468 17.0555C17.1727 16.7196 17.636 16.7018 17.9343 16.9899C18.2326 17.278 18.2308 17.7415 17.9051 18.0778L17.0675 18.943ZM16.657 22.7323L19.8212 19.464C21.3101 17.926 21.2786 16.0353 20.076 14.8735C18.8734 13.7118 16.9805 13.7437 15.4915 15.2816L14.4214 16.387L13.7959 15.7831L16.6808 12.8031L14.9009 11.0838L9.92246 16.2267L16.657 22.7323ZM24.3205 15.5288L30.953 11.8952L29.7624 9.72617L25.7712 11.9127L25.2241 10.9161L28.1589 9.30842L27.1291 7.43242L24.1944 9.04026L23.6474 8.04364L27.5212 5.92147L26.3305 3.75241L19.8155 7.3216L24.3205 15.5288ZM39.4479 6.23232C39.3091 6.46704 39.1427 6.68426 38.952 6.87932C38.544 7.31181 38.0146 7.61085 37.4333 7.73711C36.122 8.00621 34.9393 7.23871 34.681 5.98134C34.4227 4.72396 35.207 3.55285 36.5182 3.28381C37.0939 3.16991 37.6908 3.23829 38.2256 3.47942C38.468 3.58266 38.6943 3.72004 38.8976 3.88737L40.2776 1.625C39.9196 1.34548 39.5232 1.11885 39.1006 0.952057C38.0922 0.535567 36.9797 0.439735 35.9147 0.677598C32.9119 1.29367 31.1792 3.90152 31.7309 6.58667C32.2826 9.27183 34.9034 10.9862 37.9062 10.3699C38.9894 10.1676 39.9866 9.64427 40.768 8.86808C41.1015 8.54525 41.3847 8.17426 41.6079 7.7675L39.4479 6.23232ZM44.202 9.27915L47.1875 9.67373L48.058 3.11256L50.7783 3.47202L49.908 10.0331L52.8932 10.4271L54.1243 1.14861L45.4331 0L44.202 9.27915ZM54.9983 10.922C55.0796 11.0271 55.1712 11.1238 55.2717 11.2109C55.5305 11.4432 55.819 11.6402 56.1297 11.7966C57.9791 12.7358 59.9596 12.091 62.4169 7.26384L63.8488 7.99105L60.8442 13.8914L63.5293 15.2547L67.7773 6.91092L61.0359 3.48724L59.6645 6.181C58.2748 8.91061 57.3628 9.19751 56.6589 8.84012C56.5406 8.78091 56.4337 8.7012 56.3432 8.60471C56.3029 8.56844 56.2688 8.5258 56.2423 8.47848L54.9983 10.922ZM71.0532 16.7513L73.4387 15.462L73.4853 15.5099L72.1256 17.8542L71.0532 16.7513ZM65.2377 16.3363L67.4758 18.6379L69.1451 17.7638L71.0568 19.7299L70.1334 21.3712L72.3715 23.673L76.7156 14.7055L74.3377 12.2599L65.2377 16.3363ZM73.6897 26.3143L75.1196 28.962L80.9522 25.8179L82.1281 27.995L84.5433 26.6931L80.7616 19.6913L78.3464 20.9933L79.5221 23.1702L73.6897 26.3143ZM77.1659 33.3732L77.7196 36.3302L81.0746 35.7026L81.5914 38.4624L78.2363 39.09L78.7902 42.0469L88 40.3244L87.4463 37.3674L84.2228 37.9704L83.7061 35.2106L86.9294 34.6076L86.3757 31.6506L77.1659 33.3732ZM83.059 48.439C83.5024 48.5157 83.9132 48.7221 84.2392 49.032C84.5652 49.3418 84.7918 49.7413 84.8905 50.1799C84.9892 50.6186 84.9555 51.0766 84.7936 51.4961C84.6317 51.9156 84.3489 52.2777 83.981 52.5367C83.6131 52.7958 83.1766 52.94 82.7267 52.9512C82.2767 52.9624 81.8336 52.8401 81.4533 52.5998C81.073 52.3595 80.7726 52.0118 80.5901 51.6009C80.4076 51.19 80.3512 50.7343 80.428 50.2913C80.4745 49.995 80.5802 49.7111 80.7388 49.4564C80.8973 49.2017 81.1055 48.9814 81.3509 48.8086C81.5963 48.6358 81.874 48.5141 82.1674 48.4506C82.4608 48.3871 82.764 48.3832 83.059 48.439ZM83.5743 45.4744C80.8703 45.0068 78.3145 46.818 77.7913 49.8356C77.2681 52.8532 79.0653 55.416 81.769 55.8841C84.4728 56.3522 87.0289 54.5405 87.5522 51.5229C88.0756 48.5052 86.2779 45.9422 83.5743 45.4744Z" fill="white"/>
</svg>
