<svg width="156" height="156" viewBox="0 0 156 156" fill="none" xmlns="http://www.w3.org/2000/svg">
<path fill-rule="evenodd" clip-rule="evenodd" d="M123.803 123.45L125.599 125.298L124.087 126.767C123.498 127.339 122.686 127.344 122.181 126.823C121.676 126.301 121.703 125.49 122.291 124.919L123.803 123.45ZM124.726 116.835L119.012 122.388C116.323 125.001 116.276 128.314 118.318 130.415C120.359 132.516 123.673 132.562 126.362 129.949L128.294 128.071L129.356 129.163L124.146 134.226L127.167 137.334L136.158 128.597L124.726 116.835ZM110.924 129.035L99.126 135.043L101.093 138.905L108.192 135.29L109.096 137.064L103.876 139.723L105.577 143.063L110.797 140.404L111.701 142.179L104.81 145.688L106.777 149.55L118.366 143.648L110.924 129.035ZM83.9561 144.505C84.2115 144.101 84.5145 143.729 84.8584 143.397C85.5955 142.662 86.538 142.167 87.5617 141.977C89.871 141.577 91.8986 142.986 92.2823 145.202C92.6661 147.418 91.2301 149.427 88.9215 149.828C87.9075 149.996 86.8664 149.844 85.9433 149.392C85.5251 149.198 85.1369 148.945 84.7905 148.641L82.2531 152.529C82.8643 153.038 83.5456 153.456 84.2759 153.771C86.0175 154.555 87.9586 154.784 89.8349 154.425C95.1227 153.509 98.2962 149.035 97.4769 144.303C96.6576 139.571 92.1643 136.424 86.877 137.342C84.9706 137.637 83.1971 138.5 81.7876 139.817C81.1865 140.364 80.671 140.999 80.2584 141.699L83.9561 144.505ZM75.8025 138.909L70.5999 138.056L68.7226 149.5L63.9833 148.725L65.8601 137.282L60.6564 136.43L58.0022 152.614L73.1485 155.093L75.8025 138.909ZM56.9983 135.45C56.8621 135.261 56.7076 135.087 56.5371 134.929C56.0964 134.508 55.6021 134.148 55.0669 133.857C51.8814 132.113 48.383 133.135 43.8225 141.458L41.3575 140.107L46.9299 129.936L42.3057 127.404L34.4243 141.789L46.0358 148.146L48.5807 143.502C51.1574 138.797 52.7694 138.343 53.982 139.007C54.1859 139.116 54.3684 139.262 54.5209 139.436C54.5893 139.502 54.647 139.578 54.6918 139.662L56.9983 135.45ZM29.2276 124.376L24.9839 126.505L24.9051 126.418L27.4102 122.387L29.2276 124.376ZM39.38 125.418L35.588 121.267L32.6203 122.707L29.384 119.16L31.088 116.336L27.296 112.184L19.2095 127.652L23.2376 132.064L39.38 125.418ZM25.1305 107.481L22.77 102.768L12.3986 107.962L10.4592 104.086L6.16293 106.237L12.4045 118.701L16.7008 116.55L14.7591 112.675L25.1305 107.481ZM19.4269 94.9355L18.6204 89.7254L12.7133 90.6425L11.9597 85.7802L17.8668 84.863L17.0585 79.6552L0.848145 82.1704L1.65648 87.3782L7.32781 86.4988L8.08368 91.3601L2.40998 92.2405L3.21599 97.4495L19.4269 94.9355ZM9.9317 68.2336C9.15995 68.0754 8.45248 67.6919 7.89876 67.1317C7.34503 66.5715 6.96992 65.8596 6.82086 65.0861C6.6718 64.3127 6.75548 63.5124 7.06132 62.7864C7.36716 62.0604 7.88142 61.4413 8.53908 61.0075C9.19674 60.5736 9.96827 60.3445 10.7561 60.349C11.5439 60.3536 12.3127 60.5916 12.9651 61.033C13.6176 61.4743 14.1244 62.0993 14.4216 62.8287C14.7188 63.5582 14.793 64.3594 14.6347 65.1311C14.5371 65.6474 14.3368 66.1388 14.0457 66.5763C13.7546 67.0138 13.3785 67.3883 12.9399 67.6778C12.5013 67.9672 12.0091 68.1657 11.4924 68.2613C10.9757 68.357 10.445 68.3479 9.93192 68.2346L9.9317 68.2336ZM8.87371 73.3974C13.5796 74.3614 18.1479 71.3273 19.2255 66.0714C20.3031 60.8155 17.2989 56.2284 12.593 55.2645C7.88713 54.3005 3.31645 57.3357 2.23896 62.5918C1.16146 67.8479 4.16816 72.4348 8.87393 73.3985L8.87371 73.3974ZM30.7249 34.0941L28.8723 32.3027L30.3385 30.7869C30.9091 30.1984 31.72 30.1671 32.2422 30.6719C32.7644 31.1767 32.7612 31.9889 32.191 32.5781L30.7249 34.0941ZM30.0063 40.7335L35.5452 35.007C38.1515 32.3121 38.0964 28.9993 35.9912 26.9637C33.8861 24.9281 30.5725 24.984 27.9661 27.6787L26.0928 29.6156L24.9979 28.5574L30.0479 23.336L26.9321 20.3234L18.2174 29.3346L30.0063 40.7335ZM43.4213 28.1118L55.0314 21.7452L52.9473 17.9447L45.9607 21.7758L45.003 20.0297L50.1403 17.2127L48.3376 13.9256L43.2005 16.7429L42.243 14.9966L49.024 11.2782L46.9398 7.47765L35.5352 13.7315L43.4213 28.1118ZM69.9018 11.8229C69.6589 12.2341 69.3675 12.6147 69.0338 12.9565C68.3196 13.7143 67.3928 14.2383 66.3753 14.4595C64.0798 14.931 62.0095 13.5862 61.5573 11.3831C61.1051 9.17997 62.4782 7.12799 64.7734 6.65659C65.7811 6.45702 66.8259 6.57682 67.7622 6.99933C68.1864 7.18022 68.5825 7.42093 68.9385 7.71412L71.3542 3.75008C70.7275 3.26031 70.0336 2.86321 69.2938 2.57096C67.5286 1.8412 65.5812 1.67329 63.7169 2.09007C58.4605 3.16953 55.4274 7.73891 56.3932 12.4438C57.359 17.1486 61.9466 20.1524 67.2031 19.0726C69.0992 18.7181 70.8448 17.8012 72.2127 16.4412C72.7965 15.8755 73.2921 15.2255 73.6829 14.5128L69.9018 11.8229ZM78.2239 17.1614L83.45 17.8528L84.9739 6.35653L89.7356 6.98636L88.2122 18.4824L93.4378 19.1728L95.5928 2.91535L80.3788 0.902802L78.2239 17.1614ZM97.1228 20.0399C97.2652 20.2241 97.4255 20.3936 97.6015 20.5461C98.0544 20.9532 98.5594 21.2983 99.1033 21.5724C102.341 23.2181 105.808 22.0883 110.109 13.6303L112.616 14.9045L107.356 25.2429L112.056 27.6315L119.492 13.0119L107.692 7.01303L105.291 11.7329C102.858 16.5157 101.262 17.0184 100.03 16.3922C99.8226 16.2884 99.6355 16.1488 99.4771 15.9797C99.4065 15.9161 99.3468 15.8414 99.3004 15.7585L97.1228 20.0399ZM125.227 30.2539L129.403 27.9947L129.484 28.0788L127.104 32.1864L125.227 30.2539ZM115.047 29.5267L118.965 33.5595L121.887 32.0279L125.233 35.4729L123.617 38.3486L127.535 42.3818L135.139 26.6694L130.977 22.3843L115.047 29.5267ZM129.842 47.0098L132.345 51.6491L142.555 46.1401L144.614 49.9547L148.841 47.6736L142.221 35.4052L137.994 37.6865L140.052 41.5009L129.842 47.0098ZM135.927 59.3782L136.896 64.5593L142.77 63.4597L143.674 68.2954L137.801 69.395L138.77 74.5761L154.892 71.5579L153.923 66.3767L148.28 67.4333L147.376 62.5976L153.018 61.5411L152.049 56.36L135.927 59.3782ZM146.243 85.776C147.019 85.9105 147.738 86.272 148.309 86.815C148.88 87.3579 149.276 88.0579 149.449 88.8264C149.622 89.595 149.563 90.3975 149.279 91.1325C148.996 91.8675 148.501 92.5021 147.857 92.9559C147.213 93.4098 146.449 93.6625 145.661 93.6822C144.874 93.7018 144.098 93.4876 143.432 93.0664C142.767 92.6453 142.241 92.0362 141.921 91.3163C141.602 90.5963 141.503 89.7977 141.638 89.0215C141.719 88.5024 141.904 88.0049 142.182 87.5586C142.459 87.1124 142.823 86.7264 143.253 86.4236C143.683 86.1209 144.169 85.9076 144.682 85.7963C145.196 85.6851 145.727 85.6782 146.243 85.776ZM147.145 80.5815C142.412 79.7623 137.938 82.9357 137.022 88.223C136.106 93.5104 139.252 98.0009 143.985 98.8211C148.718 99.6413 153.192 96.4669 154.109 91.1794C155.025 85.892 151.878 81.4012 147.145 80.5815Z" stroke="#E43232"/>
</svg>
