<svg width="71" height="54" viewBox="0 0 71 54" fill="none" xmlns="http://www.w3.org/2000/svg">
<path d="M17 27L13.2261 46.8129C13.1087 47.4291 13.5811 48 14.2085 48H15C15.5523 48 16 48.4477 16 49V52C16 52.5523 15.5523 53 15 53H2.21063C1.5826 53 1.11002 52.4279 1.22862 51.8112L5.77138 28.1888C5.88998 27.5721 5.4174 27 4.78937 27H3C1.89543 27 1 26.1046 1 25V16C1 12.134 4.13401 9 8 9H27M27 27V9M27 27L37 22M27 27H21M27 9H35C36.1046 9 37 9.89543 37 11V11M37 22V11M37 22V27M37 31H35M37 31H42H44M37 31V48C37 48.5523 36.5523 49 36 49V49C35.4477 49 35 49.4477 35 50V52C35 52.5523 35.4477 53 36 53H43C43.5523 53 44 52.5523 44 52V50C44 49.4477 43.5523 49 43 49V49C42.4477 49 42 48.5523 42 48V35M42 11H37M42 11V19M42 11H46L50 13V15M42 19H46L50 17V15M42 19V27M50 15H57M22 13V19M18 13V19M14 13V19" stroke="#FFB240" stroke-width="2" stroke-linecap="round"/>
<path d="M61 19L56 24M61 12L56 7M53 4L52 3M70 1H66C64.8954 1 64 1.89543 64 3V49.5C64 50.6046 64.8954 51.5 66 51.5H70V1Z" stroke="#E43232" stroke-width="2" stroke-linecap="round"/>
</svg>
