<svg width="25" height="24" viewBox="0 0 25 24" fill="none" xmlns="http://www.w3.org/2000/svg">
<circle cx="12.5" cy="12" r="12" fill="#1E3176"/>
<path d="M11.3468 13.1542C10.0569 11.8643 9.76565 10.5744 9.69994 10.0576C9.68158 9.91473 9.73076 9.77142 9.83299 9.66991L10.8768 8.62654C11.0304 8.47308 11.0576 8.23393 10.9425 8.04986L9.28054 5.46916C9.15321 5.26534 8.89176 5.19178 8.67683 5.2993L6.00872 6.55587C5.83492 6.64145 5.73269 6.82612 5.75242 7.01884C5.89222 8.34694 6.47123 11.6117 9.67967 14.8204C12.8881 18.029 16.1525 18.6078 17.4813 18.7476C17.674 18.7673 17.8587 18.6651 17.9443 18.4913L19.2008 15.8232C19.3079 15.6087 19.2349 15.348 19.0319 15.2204L16.4512 13.5589C16.2672 13.4437 16.0281 13.4707 15.8745 13.6241L14.8311 14.668C14.7296 14.7702 14.5863 14.8194 14.4434 14.801C13.9266 14.7353 12.6367 14.4441 11.3468 13.1542Z" fill="#75BDFF"/>
</svg>
