<svg width="64" height="64" viewBox="0 0 64 64" fill="none" xmlns="http://www.w3.org/2000/svg">
<path fill-rule="evenodd" clip-rule="evenodd" d="M32 0C22.6262 0 15 7.50669 15 16.7336C15 23.2649 17.7855 29.6933 23.0552 35.3236C26.734 39.2539 31.2346 41.6004 31.9161 41.9557L31.9166 41.956C31.9616 41.9794 31.9898 41.9941 32 42C32.0102 41.9941 32.0385 41.9793 32.0835 41.9558L32.0842 41.9555C32.7669 41.5995 37.2667 39.2532 40.9449 35.3236C46.2145 29.6933 49 23.2649 49 16.7336C49 7.50669 41.3738 0 32 0ZM39 17C39 20.866 35.866 24 32 24C28.134 24 25 20.866 25 17C25 13.134 28.134 10 32 10C35.866 10 39 13.134 39 17ZM39 53V50H25V53H39ZM43 64V61H21V64H43Z" fill="#FFB240"/>
</svg>
