<svg width="70" height="72" viewBox="0 0 70 72" fill="none" xmlns="http://www.w3.org/2000/svg">
<path d="M40 64H21C19.8954 64 19 63.1046 19 62V32H52V52M40 64L52 52M40 64V54C40 52.8954 40.8954 52 42 52H52" stroke="#E43232" stroke-width="2"/>
<path d="M56 39H66C67.6569 39 69 37.6569 69 36V18C69 16.3431 67.6569 15 66 15H64H40H19H10M1 15V36C1 37.6569 2.34315 39 4 39H15M1 15V3C1 1.89543 1.89543 1 3 1H10M1 15H10M6 71H3M6 71H14M6 71V43M64 71H67M64 71H56M64 71V43M10 1H17C18.1046 1 19 1.89543 19 3V11M10 1V8V11.5V15M38 22H50M54 22H57M61 22H64M59 71V43M11 71V43M40 11V4C40 2.89543 40.8954 2 42 2H62C63.1046 2 64 2.89543 64 4V11" stroke="#FFB240" stroke-width="2" stroke-linecap="round"/>
</svg>
