<svg width="260" height="222" viewBox="0 0 260 222" fill="none" xmlns="http://www.w3.org/2000/svg">
<g clip-path="url(#clip0)">
<rect width="1.63296" height="310.262" transform="matrix(0.866044 0.499967 -0.866044 0.499967 159.701 -19)" fill="#FFA31C"/>
<rect width="1.63296" height="310.262" transform="matrix(0.866044 0.499967 -0.866044 0.499967 260.701 -111)" fill="#FFA31C"/>
<rect width="310.262" height="1.63296" transform="matrix(0.866044 0.499967 -0.866044 0.499967 159.701 -19)" fill="#FFA31C"/>
<rect width="310.262" height="1.63296" transform="matrix(0.866044 0.499967 -0.866044 0.499967 130.002 -1.85504)" fill="#FFA31C"/>
<rect width="364.178" height="1.63296" transform="matrix(0.866044 0.499967 -0.866044 0.499967 53.6099 -11.6666)" fill="#FFA31C"/>
<rect width="384.916" height="1.63296" transform="matrix(0.866044 0.499967 -0.866044 0.499967 5.95117 -4.88977)" fill="#FFA31C"/>
<path d="M-22.4473 13.0054L309.607 204.701L308.193 205.517L-23.8615 13.8218L-22.4473 13.0054Z" fill="#FFA31C"/>
<rect width="310.262" height="1.63296" transform="matrix(0.866044 0.499967 -0.866044 0.499967 11.208 66.7247)" fill="#FFA31C"/>
<rect width="310.262" height="1.63296" transform="matrix(0.866044 0.499967 -0.866044 0.499967 -18.4902 83.8696)" fill="#FFA31C"/>
<rect width="310.262" height="1.63296" transform="matrix(0.866044 0.499967 -0.866044 0.499967 -48.189 101.014)" fill="#FFA31C"/>
<rect width="310.262" height="1.63296" transform="matrix(0.866044 0.499967 -0.866044 0.499967 -77.8872 118.159)" fill="#FFA31C"/>
<rect width="310.262" height="1.63296" transform="matrix(0.866044 0.499967 -0.866044 0.499967 -107.586 135.304)" fill="#FFA31C"/>
<rect width="1.63296" height="310.262" transform="matrix(0.866044 0.499967 -0.866044 0.499967 189.399 -1.85504)" fill="#FFA31C"/>
<rect width="1.63296" height="353.58" transform="matrix(0.866044 0.499967 -0.866044 0.499967 256.613 -6.36774)" fill="#FFA31C"/>
<rect width="1.63296" height="349.11" transform="matrix(0.866044 0.499967 -0.866044 0.499967 282.44 13.012)" fill="#FFA31C"/>
<rect width="1.63296" height="310.262" transform="matrix(0.866044 0.499967 -0.866044 0.499967 278.495 49.5798)" fill="#FFA31C"/>
<rect width="1.63296" height="310.262" transform="matrix(0.866044 0.499967 -0.866044 0.499967 308.193 66.7247)" fill="#FFA31C"/>
<rect width="1.63296" height="310.262" transform="matrix(0.866044 0.499967 -0.866044 0.499967 337.892 83.8696)" fill="#FFA31C"/>
<rect width="1.63296" height="310.262" transform="matrix(0.866044 0.499967 -0.866044 0.499967 367.59 101.015)" fill="#FFA31C"/>
<rect width="1.63296" height="310.262" transform="matrix(0.866044 0.499967 -0.866044 0.499967 397.289 118.16)" fill="#FFA31C"/>
<rect width="1.63296" height="310.262" transform="matrix(0.866044 0.499967 -0.866044 0.499967 426.987 135.304)" fill="#FFA31C"/>
<path fill-rule="evenodd" clip-rule="evenodd" d="M343.439 -75.5952L49.2822 94.2213L22.5979 78.8164L23.464 78.3164L22.5979 77.8164L23.464 77.3164L22.5979 76.8164L316.754 -93.0001L343.439 -77.5952L342.573 -77.0952L343.439 -76.5952L342.573 -76.0952L343.439 -75.5952Z" fill="#841414"/>
<rect width="339.655" height="30.8118" transform="matrix(-0.866044 0.499967 -0.866044 -0.499967 343.439 -78.5952)" fill="#E43232"/>
<rect width="1.63296" height="8.16479" transform="matrix(-0.866044 0.499967 -0.866044 -0.499967 50.6968 90.4049)" fill="white"/>
<rect width="1.63296" height="8.16479" transform="matrix(-0.866044 0.499967 -0.866044 -0.499967 199.189 4.68024)" fill="white"/>
<rect width="1.63296" height="8.16479" transform="matrix(-0.866044 0.499967 -0.866044 -0.499967 54.939 87.9556)" fill="white"/>
<rect width="1.63296" height="8.16479" transform="matrix(-0.866044 0.499967 -0.866044 -0.499967 203.432 2.23096)" fill="white"/>
<rect width="1.63296" height="8.16479" transform="matrix(-0.866044 0.499967 -0.866044 -0.499967 59.1816 85.5063)" fill="white"/>
<rect width="1.63296" height="8.16479" transform="matrix(-0.866044 0.499967 -0.866044 -0.499967 207.674 -0.218323)" fill="white"/>
<rect width="1.63296" height="8.16479" transform="matrix(-0.866044 0.499967 -0.866044 -0.499967 63.4243 83.057)" fill="white"/>
<rect width="1.63296" height="16.3296" transform="matrix(-0.866044 0.499967 -0.866044 -0.499967 67.667 80.6078)" fill="white"/>
<rect width="1.63296" height="8.16479" transform="matrix(-0.866044 0.499967 -0.866044 -0.499967 71.9097 78.1585)" fill="white"/>
<rect width="1.63296" height="8.16479" transform="matrix(-0.866044 0.499967 -0.866044 -0.499967 76.1523 75.7092)" fill="white"/>
<rect width="1.63296" height="8.16479" transform="matrix(-0.866044 0.499967 -0.866044 -0.499967 80.395 73.2599)" fill="white"/>
<rect width="1.63296" height="8.16479" transform="matrix(-0.866044 0.499967 -0.866044 -0.499967 84.6377 70.8107)" fill="white"/>
<rect width="1.63296" height="16.3296" transform="matrix(-0.866044 0.499967 -0.866044 -0.499967 88.8804 68.3614)" fill="white"/>
<rect width="1.63296" height="8.16479" transform="matrix(-0.866044 0.499967 -0.866044 -0.499967 93.123 65.9121)" fill="white"/>
<rect width="1.63296" height="8.16479" transform="matrix(-0.866044 0.499967 -0.866044 -0.499967 97.3657 63.4628)" fill="white"/>
<rect width="1.63296" height="8.16479" transform="matrix(-0.866044 0.499967 -0.866044 -0.499967 101.608 61.0135)" fill="white"/>
<rect width="1.63296" height="8.16479" transform="matrix(-0.866044 0.499967 -0.866044 -0.499967 105.851 58.5643)" fill="white"/>
<rect width="1.63296" height="16.3296" transform="matrix(-0.866044 0.499967 -0.866044 -0.499967 110.094 56.115)" fill="white"/>
<rect width="1.63296" height="8.16479" transform="matrix(-0.866044 0.499967 -0.866044 -0.499967 114.336 53.6657)" fill="white"/>
<rect width="1.63296" height="8.16479" transform="matrix(-0.866044 0.499967 -0.866044 -0.499967 118.579 51.2164)" fill="white"/>
<rect width="1.63296" height="8.16479" transform="matrix(-0.866044 0.499967 -0.866044 -0.499967 122.821 48.7672)" fill="white"/>
<rect width="1.63296" height="8.16479" transform="matrix(-0.866044 0.499967 -0.866044 -0.499967 127.064 46.3179)" fill="white"/>
<rect width="1.63296" height="16.3296" transform="matrix(-0.866044 0.499967 -0.866044 -0.499967 131.307 43.8687)" fill="white"/>
<rect width="1.63296" height="8.16479" transform="matrix(-0.866044 0.499967 -0.866044 -0.499967 135.549 41.4194)" fill="white"/>
<rect width="1.63296" height="8.16479" transform="matrix(-0.866044 0.499967 -0.866044 -0.499967 139.792 38.9701)" fill="white"/>
<rect width="1.63296" height="8.16479" transform="matrix(-0.866044 0.499967 -0.866044 -0.499967 144.035 36.5208)" fill="white"/>
<rect width="1.63296" height="8.16479" transform="matrix(-0.866044 0.499967 -0.866044 -0.499967 148.277 34.0715)" fill="white"/>
<rect width="1.63296" height="16.3296" transform="matrix(-0.866044 0.499967 -0.866044 -0.499967 152.52 31.6223)" fill="white"/>
<rect width="1.63296" height="8.16479" transform="matrix(-0.866044 0.499967 -0.866044 -0.499967 156.763 29.173)" fill="white"/>
<rect width="1.63296" height="8.16479" transform="matrix(-0.866044 0.499967 -0.866044 -0.499967 161.005 26.7237)" fill="white"/>
<rect width="1.63296" height="8.16479" transform="matrix(-0.866044 0.499967 -0.866044 -0.499967 165.248 24.2744)" fill="white"/>
<rect width="1.63296" height="8.16479" transform="matrix(-0.866044 0.499967 -0.866044 -0.499967 169.491 21.8252)" fill="white"/>
<rect width="1.63296" height="16.3296" transform="matrix(-0.866044 0.499967 -0.866044 -0.499967 173.733 19.3759)" fill="white"/>
<rect width="1.63296" height="8.16479" transform="matrix(-0.866044 0.499967 -0.866044 -0.499967 177.976 16.9266)" fill="white"/>
<rect width="1.63296" height="8.16479" transform="matrix(-0.866044 0.499967 -0.866044 -0.499967 182.218 14.4773)" fill="white"/>
<rect width="1.63296" height="8.16479" transform="matrix(-0.866044 0.499967 -0.866044 -0.499967 186.461 12.0281)" fill="white"/>
<rect width="1.63296" height="8.16479" transform="matrix(-0.866044 0.499967 -0.866044 -0.499967 190.704 9.57874)" fill="white"/>
<rect width="1.63296" height="16.3296" transform="matrix(-0.866044 0.499967 -0.866044 -0.499967 194.946 7.12952)" fill="white"/>
<path fill-rule="evenodd" clip-rule="evenodd" d="M24 74L51 90L50.1615 90.5031L51 91L48 92.8V99L47 98.4074V100L20 84V78.5926L19 78L19.8385 77.4969L19 77L20 76.4V76L20.3354 76.1988L21 75.8V75L21.6708 75.3975L24 74Z" fill="black"/>
<path d="M51 89L24 73L19 76L46 92L51 89Z" fill="white"/>
<path d="M19 85V76L46 92V101L19 85Z" fill="#E8E8E8"/>
<path d="M137.351 147.999L137.033 148.182L137 108.382C136.982 86.4002 152.412 59.6569 171.464 48.6488C181.94 42.5959 188.5 42.9271 197 46.9271L222 60.9271L217.99 64.8699L200.625 92.9966C197.279 100.998 192.548 108.681 186.944 115.157L176.911 131.408L163.885 163.927L137.334 148.418C137.34 148.279 137.345 148.14 137.351 147.999Z" fill="#E8E8E8"/>
<path d="M235 84.238C235.018 106.798 219.587 134.245 200.533 145.543C190.546 151.465 174.57 160.939 166.033 166C166.026 156.314 166.009 135.887 166 125.151C165.982 102.591 181.413 75.1439 200.467 63.846C219.52 52.5481 234.982 61.6779 235 84.238Z" fill="white"/>
<path d="M224 90.4967C224.013 105.308 213.501 123.328 200.523 130.746C187.544 138.163 177.013 132.169 177 117.358C176.987 102.546 187.499 84.5261 200.477 77.1087C213.456 69.6912 223.987 75.6852 224 90.4967Z" fill="#E43232"/>
<path d="M216 95.4212C216.008 104.802 209.299 116.214 201.015 120.912C192.73 125.61 186.008 121.814 186 112.433C185.992 103.053 192.701 91.6398 200.985 86.9421C209.27 82.2444 215.992 86.0406 216 95.4212Z" fill="white"/>
<path d="M137 148V139L166 155.927V164.927L137 148Z" fill="black"/>
<path fill-rule="evenodd" clip-rule="evenodd" d="M-155.402 312.817L138.755 143L165.439 158.405L164.573 158.905L165.439 159.405L164.573 159.905L165.439 160.405L-128.717 330.221L-155.402 314.817L-154.535 314.316L-155.402 313.817L-154.535 313.317L-155.402 312.817Z" fill="#841414"/>
<rect width="339.655" height="30.8118" transform="matrix(0.866044 -0.499967 0.866044 0.499967 -155.402 311.817)" fill="#E43232"/>
<rect width="1.63296" height="8.16479" transform="matrix(0.866044 -0.499967 0.866044 0.499967 137.341 142.816)" fill="white"/>
<rect width="1.63296" height="8.16479" transform="matrix(0.866044 -0.499967 0.866044 0.499967 133.098 145.266)" fill="white"/>
<rect width="1.63296" height="8.16479" transform="matrix(0.866044 -0.499967 0.866044 0.499967 128.855 147.715)" fill="white"/>
<rect width="1.63296" height="8.16479" transform="matrix(0.866044 -0.499967 0.866044 0.499967 124.613 150.164)" fill="white"/>
<rect width="1.63296" height="16.3296" transform="matrix(0.866044 -0.499967 0.866044 0.499967 120.37 152.614)" fill="white"/>
<rect width="1.63296" height="8.16479" transform="matrix(0.866044 -0.499967 0.866044 0.499967 116.127 155.063)" fill="white"/>
<rect width="1.63296" height="8.16479" transform="matrix(0.866044 -0.499967 0.866044 0.499967 111.885 157.512)" fill="white"/>
<rect width="1.63296" height="8.16479" transform="matrix(0.866044 -0.499967 0.866044 0.499967 107.642 159.961)" fill="white"/>
<rect width="1.63296" height="8.16479" transform="matrix(0.866044 -0.499967 0.866044 0.499967 103.399 162.411)" fill="white"/>
<rect width="1.63296" height="16.3296" transform="matrix(0.866044 -0.499967 0.866044 0.499967 99.1567 164.86)" fill="white"/>
<rect width="1.63296" height="8.16479" transform="matrix(0.866044 -0.499967 0.866044 0.499967 94.9141 167.309)" fill="white"/>
<rect width="1.63296" height="8.16479" transform="matrix(0.866044 -0.499967 0.866044 0.499967 90.6714 169.759)" fill="white"/>
<rect width="1.63296" height="8.16479" transform="matrix(0.866044 -0.499967 0.866044 0.499967 86.4287 172.208)" fill="white"/>
<rect width="1.63296" height="8.16479" transform="matrix(0.866044 -0.499967 0.866044 0.499967 82.186 174.657)" fill="white"/>
<rect width="1.63296" height="16.3296" transform="matrix(0.866044 -0.499967 0.866044 0.499967 77.9434 177.106)" fill="white"/>
<rect width="1.63296" height="8.16479" transform="matrix(0.866044 -0.499967 0.866044 0.499967 73.7012 179.556)" fill="white"/>
<rect width="1.63296" height="8.16479" transform="matrix(0.866044 -0.499967 0.866044 0.499967 69.4585 182.005)" fill="white"/>
<rect width="1.63296" height="8.16479" transform="matrix(0.866044 -0.499967 0.866044 0.499967 65.2158 184.454)" fill="white"/>
<rect width="1.63296" height="8.16479" transform="matrix(0.866044 -0.499967 0.866044 0.499967 60.9731 186.903)" fill="white"/>
<rect width="1.63296" height="16.3296" transform="matrix(0.866044 -0.499967 0.866044 0.499967 56.7305 189.353)" fill="white"/>
<rect width="1.63296" height="8.16479" transform="matrix(0.866044 -0.499967 0.866044 0.499967 52.4878 191.802)" fill="white"/>
<rect width="1.63296" height="8.16479" transform="matrix(0.866044 -0.499967 0.866044 0.499967 48.2451 194.251)" fill="white"/>
<rect width="1.63296" height="8.16479" transform="matrix(0.866044 -0.499967 0.866044 0.499967 44.0024 196.701)" fill="white"/>
<rect width="1.63296" height="8.16479" transform="matrix(0.866044 -0.499967 0.866044 0.499967 39.7598 199.15)" fill="white"/>
<rect width="1.63296" height="16.3296" transform="matrix(0.866044 -0.499967 0.866044 0.499967 35.5171 201.599)" fill="white"/>
<rect width="1.63296" height="8.16479" transform="matrix(0.866044 -0.499967 0.866044 0.499967 31.2744 204.048)" fill="white"/>
<rect width="1.63296" height="8.16479" transform="matrix(0.866044 -0.499967 0.866044 0.499967 27.0317 206.498)" fill="white"/>
<rect width="1.63296" height="8.16479" transform="matrix(0.866044 -0.499967 0.866044 0.499967 22.7891 208.947)" fill="white"/>
<rect width="1.63296" height="8.16479" transform="matrix(0.866044 -0.499967 0.866044 0.499967 18.5464 211.396)" fill="white"/>
<rect width="1.63296" height="16.3296" transform="matrix(0.866044 -0.499967 0.866044 0.499967 14.3042 213.846)" fill="white"/>
<rect width="1.63296" height="8.16479" transform="matrix(0.866044 -0.499967 0.866044 0.499967 10.0615 216.295)" fill="white"/>
<rect width="1.63296" height="8.16479" transform="matrix(0.866044 -0.499967 0.866044 0.499967 5.81885 218.744)" fill="white"/>
<rect width="1.63296" height="8.16479" transform="matrix(0.866044 -0.499967 0.866044 0.499967 1.57617 221.193)" fill="white"/>
</g>
<defs>
<clipPath id="clip0">
<rect width="260" height="222" fill="white"/>
</clipPath>
</defs>
</svg>
