<svg width="260" height="222" viewBox="0 0 260 222" fill="none" xmlns="http://www.w3.org/2000/svg">
<rect width="260" height="222" fill="#FFB240"/>
<g clip-path="url(#clip0)">
<rect width="1.63296" height="310.262" transform="matrix(0.866044 0.499967 -0.866044 0.499967 159.7 -19)" fill="#FFA31C"/>
<rect width="1.63296" height="310.262" transform="matrix(0.866044 0.499967 -0.866044 0.499967 260.7 -111)" fill="#FFA31C"/>
<rect width="310.262" height="1.63296" transform="matrix(0.866044 0.499967 -0.866044 0.499967 159.7 -19)" fill="#FFA31C"/>
<rect width="310.262" height="1.63296" transform="matrix(0.866044 0.499967 -0.866044 0.499967 130.002 -1.85498)" fill="#FFA31C"/>
<rect width="364.178" height="1.63296" transform="matrix(0.866044 0.499967 -0.866044 0.499967 53.6094 -11.6665)" fill="#FFA31C"/>
<rect width="384.916" height="1.63296" transform="matrix(0.866044 0.499967 -0.866044 0.499967 5.95117 -4.88965)" fill="#FFA31C"/>
<path d="M-22.4482 13.0054L309.606 204.701L308.192 205.517L-23.8625 13.8218L-22.4482 13.0054Z" fill="#FFA31C"/>
<rect width="310.262" height="1.63296" transform="matrix(0.866044 0.499967 -0.866044 0.499967 11.208 66.7246)" fill="#FFA31C"/>
<rect width="310.262" height="1.63296" transform="matrix(0.866044 0.499967 -0.866044 0.499967 -18.4912 83.8696)" fill="#FFA31C"/>
<rect width="310.262" height="1.63296" transform="matrix(0.866044 0.499967 -0.866044 0.499967 -48.1895 101.014)" fill="#FFA31C"/>
<rect width="310.262" height="1.63296" transform="matrix(0.866044 0.499967 -0.866044 0.499967 -77.8877 118.159)" fill="#FFA31C"/>
<rect width="310.262" height="1.63296" transform="matrix(0.866044 0.499967 -0.866044 0.499967 -107.586 135.304)" fill="#FFA31C"/>
<rect width="1.63296" height="310.262" transform="matrix(0.866044 0.499967 -0.866044 0.499967 189.398 -1.85498)" fill="#FFA31C"/>
<rect width="1.63296" height="353.58" transform="matrix(0.866044 0.499967 -0.866044 0.499967 256.612 -6.36768)" fill="#FFA31C"/>
<rect width="1.63296" height="349.11" transform="matrix(0.866044 0.499967 -0.866044 0.499967 282.439 13.012)" fill="#FFA31C"/>
<rect width="1.63296" height="310.262" transform="matrix(0.866044 0.499967 -0.866044 0.499967 278.494 49.5798)" fill="#FFA31C"/>
<rect width="1.63296" height="310.262" transform="matrix(0.866044 0.499967 -0.866044 0.499967 308.192 66.7246)" fill="#FFA31C"/>
<rect width="1.63296" height="310.262" transform="matrix(0.866044 0.499967 -0.866044 0.499967 337.891 83.8696)" fill="#FFA31C"/>
<rect width="1.63296" height="310.262" transform="matrix(0.866044 0.499967 -0.866044 0.499967 367.59 101.015)" fill="#FFA31C"/>
<rect width="1.63296" height="310.262" transform="matrix(0.866044 0.499967 -0.866044 0.499967 397.288 118.159)" fill="#FFA31C"/>
<rect width="1.63296" height="310.262" transform="matrix(0.866044 0.499967 -0.866044 0.499967 426.986 135.304)" fill="#FFA31C"/>
</g>
<path fill-rule="evenodd" clip-rule="evenodd" d="M9 114.969L62.7401 83.9443L116.48 114.969L62.7401 145.993L9 114.969ZM28.799 114.969L62.7401 134.563L96.6812 114.969L62.7401 95.3743L28.799 114.969Z" fill="#FFDCA8"/>
<path fill-rule="evenodd" clip-rule="evenodd" d="M78.2969 154.973L132.037 123.949L185.777 154.973L132.037 185.997L78.2969 154.973ZM98.0959 154.973L132.037 174.567L165.978 154.973L132.037 135.379L98.0959 154.973Z" fill="#FFDCA8"/>
<path d="M79.6656 75.121L79.6641 76.121L79.6656 76.121L79.6641 77.121L79.6656 77.121L79.6641 78.121L79.6656 78.121L79.6641 79.121L79.6656 79.121L79.6641 80.121L79.6656 80.121L79.6641 81.121L79.6656 81.121L79.5929 128.568L41.6784 128.587L41.6523 120.49H41.6556L41.6523 119.49H41.6556L41.6523 118.49H41.6556L41.6523 117.49H41.6556L41.6523 116.49H41.6556L41.6523 115.49H41.6556L41.6523 114.49L65.5796 114.478L65.6399 75.106L79.6656 75.121Z" fill="#841414"/>
<path d="M149.13 109.056L149.129 110.056L149.13 110.056L149.129 111.056L149.13 111.056L149.129 112.056L149.13 112.056L149.129 113.056L149.13 113.056L149.129 114.056L149.13 114.056L149.129 115.056L149.13 115.056L149.058 162.503L111.143 162.522L111.117 154.425H111.12L111.117 153.425H111.12L111.117 152.425H111.12L111.117 151.425H111.12L111.117 150.425H111.12L111.117 149.425H111.12L111.117 148.425L135.044 148.413L135.105 109.041L149.13 109.056Z" fill="#841414"/>
<path fill-rule="evenodd" clip-rule="evenodd" d="M79.6651 74.1211L79.5924 121.568L41.678 121.587L41.6519 113.49L65.5791 113.478L65.6395 74.1061L79.6651 74.1211Z" fill="#E43232"/>
<path fill-rule="evenodd" clip-rule="evenodd" d="M149.13 108.056L149.057 155.503L111.143 155.522L111.117 147.425L135.044 147.413L135.104 108.041L149.13 108.056Z" fill="#E43232"/>
<path d="M182.241 43.715L181.374 44.215L182.241 44.715L181.374 45.215L182.241 45.715L181.374 46.215L182.241 46.715L181.374 47.215L182.241 47.715L181.374 48.215L182.241 48.715L181.374 49.215L182.241 49.715L107.287 92.9855L97.3877 87.2705L98.2538 86.7705L97.3877 86.2705L98.2538 85.7705L97.3877 85.2705L98.2538 84.7705L97.3877 84.2705L98.2538 83.7705L97.3877 83.2705L98.2538 82.7705L97.3877 82.2705L98.2538 81.7705L97.3877 81.2705L172.341 38L182.241 43.715Z" fill="#E8E8E8"/>
<path d="M171.634 71.0652L170.768 71.5652L171.634 72.0652L170.768 72.5652L171.634 73.0652L170.768 73.5652L171.634 74.0652L170.768 74.5652L171.634 75.0652L170.768 75.5652L171.634 76.0652L170.768 76.5652L171.634 77.0652L125.672 103.599L115.772 97.8841L116.639 97.3841L115.772 96.8841L116.639 96.3841L115.772 95.8841L116.639 95.3841L115.772 94.8841L116.639 94.3841L115.772 93.8841L116.639 93.3841L115.772 92.8841L116.639 92.3841L115.772 91.8841L161.734 65.3502L171.634 71.0652Z" fill="#E8E8E8"/>
<path d="M251.537 83.7196L250.671 84.2196L251.537 84.7196L250.671 85.2196L251.537 85.7196L250.671 86.2196L251.537 86.7196L250.671 87.2196L251.537 87.7196L250.671 88.2196L251.537 88.7196L250.671 89.2196L251.537 89.7196L176.584 132.99L166.685 127.275L167.551 126.775L166.685 126.275L167.551 125.775L166.685 125.275L167.551 124.775L166.685 124.275L167.551 123.775L166.685 123.275L167.551 122.775L166.685 122.275L167.551 121.775L166.685 121.275L241.638 78.0046L251.537 83.7196Z" fill="#E8E8E8"/>
<path d="M240.931 111.07L240.065 111.57L240.931 112.07L240.065 112.57L240.931 113.07L240.065 113.57L240.931 114.07L240.065 114.57L240.931 115.07L240.065 115.57L240.931 116.07L240.065 116.57L240.931 117.07L194.969 143.604L185.069 137.889L185.935 137.389L185.069 136.889L185.935 136.389L185.069 135.889L185.935 135.389L185.069 134.889L185.935 134.389L185.069 133.889L185.935 133.389L185.069 132.889L185.935 132.389L185.069 131.889L231.031 105.355L240.931 111.07Z" fill="#E8E8E8"/>
<path fill-rule="evenodd" clip-rule="evenodd" d="M182.241 42.715L107.287 85.9855L97.3877 80.2705L172.341 37L182.241 42.715Z" fill="white"/>
<path fill-rule="evenodd" clip-rule="evenodd" d="M171.634 70.0652L125.672 96.5991L115.772 90.8841L161.734 64.3502L171.634 70.0652Z" fill="white"/>
<path fill-rule="evenodd" clip-rule="evenodd" d="M251.537 82.7196L176.584 125.99L166.685 120.275L241.638 77.0046L251.537 82.7196Z" fill="white"/>
<path fill-rule="evenodd" clip-rule="evenodd" d="M240.931 110.07L194.969 136.604L185.069 130.889L231.031 104.355L240.931 110.07Z" fill="white"/>
<defs>
<clipPath id="clip0">
<rect width="260" height="222" fill="white"/>
</clipPath>
</defs>
</svg>
