<svg width="77" height="77" viewBox="0 0 77 77" fill="none" xmlns="http://www.w3.org/2000/svg">
<path d="M76 38.5C76 17.7893 59.2107 1 38.5 1C17.7893 1 1 17.7893 1 38.5C1 59.2107 17.7893 76 38.5 76" stroke="#FFB240" stroke-width="2"/>
<path d="M39.6714 52.3175L31.254 56.8573C29.0395 58.0517 26.427 56.1536 26.8786 53.6784L28.3047 45.8619C28.486 44.8684 28.1552 43.8503 27.4246 43.1531L21.6764 37.6676C19.8562 35.9306 20.8541 32.8594 23.3476 32.524L31.2223 31.4649C32.2232 31.3303 33.0892 30.7011 33.5265 29.7908L36.9672 22.6288C38.0567 20.3609 41.286 20.3609 42.3755 22.6288L45.8162 29.7908C46.2535 30.7011 47.1195 31.3303 48.1205 31.4649L55.9951 32.524C58.4887 32.8594 59.4866 35.9306 57.6664 37.6676L53 42.1207" stroke="#FFB240" stroke-width="2"/>
<path d="M75.912 43.4177C75.6807 42.6071 75.0108 41.9745 74.1723 41.7731C64.8425 39.5334 54.8477 42.2416 48.0624 48.8387C41.277 55.4357 38.4916 65.1626 40.7951 74.2242C41.0024 75.0442 41.6529 75.6908 42.4866 75.9157C42.6987 75.9719 42.9155 76 43.1324 76C43.7637 76 44.3806 75.7564 44.8384 75.3159L75.2952 45.7041C75.912 45.0997 76.1433 44.2329 75.912 43.4177Z" stroke="#E43232" stroke-width="2"/>
</svg>
