<svg width="48" height="48" viewBox="0 0 48 48" fill="none" xmlns="http://www.w3.org/2000/svg">
<path d="M19 21L23 25L30 18M9.89168 6.03772L7 6.89073V19.9013C7 30.7364 13.8126 40.3938 24 44C34.1874 40.3938 41 30.7364 41 19.9013V6.89073L38.1083 6.03773C28.8978 3.32076 19.1022 3.32076 9.89168 6.03772ZM12.4702 9.69413L11 10.1353V20.5381C11 28.7947 16.09 36.1519 23.697 38.8909L24 39L24.303 38.8909C31.91 36.1519 37 28.7947 37 20.5381V10.1353L35.5298 9.69413C28.0016 7.43529 19.9984 7.43529 12.4702 9.69413Z" stroke="#E43232" stroke-width="2"/>
</svg>
