<svg width="341" height="249" viewBox="0 0 341 249" fill="none" xmlns="http://www.w3.org/2000/svg">
<rect width="48.9887" height="48.9887" rx="8" transform="matrix(0.866044 -0.499967 0.866044 0.499967 0 74.4928)" fill="#2F48A5"/>
<rect width="48.9887" height="48.9887" rx="8" transform="matrix(0.866044 -0.499967 0.866044 0.499967 0 24.4928)" fill="#2F48A5"/>
<rect width="48.9887" height="48.9887" rx="8" transform="matrix(0.866044 -0.499967 0.866044 0.499967 86 224.493)" fill="#2F48A5"/>
<rect width="48.9887" height="48.9887" rx="8" transform="matrix(0.866044 -0.499967 0.866044 0.499967 86 24.4928)" fill="#2F48A5"/>
<rect width="48.9887" height="48.9887" rx="8" transform="matrix(0.866044 -0.499967 0.866044 0.499967 256 224.493)" fill="#2F48A5"/>
<rect width="48.9887" height="48.9887" rx="8" transform="matrix(0.866044 -0.499967 0.866044 0.499967 171 224.493)" fill="#2F48A5"/>
<rect width="48.9887" height="48.9887" rx="8" transform="matrix(0.866044 -0.499967 0.866044 0.499967 171 24.4928)" fill="#2F48A5"/>
<rect width="48.9887" height="48.9887" rx="8" transform="matrix(0.866044 -0.499967 0.866044 0.499967 171 174.493)" fill="#2F48A5"/>
<path d="M102.109 187.86C101.5 182.82 110.84 173.365 99.402 166.762C91.01 161.918 76.7299 161.879 65.5631 168.325C58.3216 172.506 56.2235 177.077 56.0205 180.476C55.8852 182.508 56.4266 184.461 57.4417 186.298L75.7148 182.391C75.5794 181.765 75.4441 181.14 75.4441 180.593C75.5117 179.617 75.8501 178.405 77.4067 177.507C79.7754 176.139 82.4149 176.1 84.5129 177.311C91.6191 181.414 71.9925 193.916 95.3413 207.396L132.226 186.102L118.69 178.288L102.109 187.86Z" fill="#132668"/>
<path d="M145.769 164.218C142.724 165.976 136.633 165.976 128.173 161.093C119.713 156.209 119.713 152.692 122.759 150.934C125.804 149.176 131.895 149.176 140.355 154.06C148.815 158.944 148.815 162.46 145.769 164.218ZM159.305 172.032C170.81 165.39 170.81 154.06 155.583 145.269C140.355 136.478 120.728 136.478 109.223 143.12C97.718 149.762 97.718 161.093 112.945 169.883C128.173 178.674 147.8 178.674 159.305 172.032Z" fill="#132668"/>
<path d="M194.138 150.36C194.95 150.204 195.762 149.97 196.709 149.657C198.334 149.11 200.364 148.329 202.597 147.039C213.088 140.983 213.088 132.388 185.678 116.564L193.799 111.876L227.3 131.216L242.527 122.425L195.153 95.0758L156.915 117.151L172.21 125.98C187.708 134.928 187.641 138.874 183.648 141.179C182.903 141.609 182.091 141.921 181.347 142.117C181.008 142.234 180.602 142.312 180.264 142.351L194.138 150.36Z" fill="#132668"/>
<path d="M251.328 117.344L289.566 95.2696L277.046 88.0416L254.035 101.326L248.283 98.0045L265.202 88.2369L254.374 81.9856L237.454 91.7533L231.702 88.4323L254.035 75.539L241.515 68.311L203.954 89.9951L251.328 117.344Z" fill="#132668"/>
<path d="M304.772 86.491L320 77.7001L286.499 58.3603L299.02 51.1322L285.146 43.1228L244.878 66.3697L258.752 74.3791L271.272 67.1511L304.772 86.491Z" fill="#132668"/>
<path fill-rule="evenodd" clip-rule="evenodd" d="M298.284 26.0746L299.02 25.6498L285.146 17.6404L244.878 40.8873L245.613 41.312L244.878 41.7367L245.613 42.1615L244.878 42.5862L245.613 43.0109L244.878 43.4356L245.613 43.8603L244.878 44.285L245.613 44.7097L245.193 44.9521L241.515 42.8286L203.954 64.5127L204.689 64.9374L203.954 65.3621L204.689 65.7868L203.954 66.2115L204.689 66.6363L203.954 67.061L204.689 67.4857L203.954 67.9104L204.689 68.3351L203.954 68.7598L204.689 69.1845L203.954 69.6092L204.689 70.0339L203.954 70.4586L204.689 70.8833L203.954 71.308L204.689 71.7327L203.954 72.1574L204.689 72.5821L203.954 73.0068L204.689 73.4315L203.954 73.8563L204.689 74.281L203.981 74.6898L195.153 69.5933L156.915 91.6681L157.651 92.0929L156.915 92.5176L157.651 92.9423L156.915 93.367L157.651 93.7917L156.915 94.2164L157.651 94.6411L156.915 95.0658L157.651 95.4905L156.915 95.9152L157.651 96.34L156.915 96.7647L157.651 97.1894L156.915 97.6141L157.651 98.0388L156.915 98.4635L157.651 98.8882L156.915 99.3129L157.651 99.7376L156.915 100.162L157.651 100.587L156.915 101.012L157.651 101.436L156.915 101.861L157.651 102.286L156.915 102.711L157.651 103.135L156.915 103.56L157.651 103.985L156.915 104.409L172.21 113.239C175.689 115.248 178.384 117.004 180.426 118.546C180.37 118.554 180.316 118.561 180.264 118.567L181.021 119.004C181.107 119.072 181.192 119.139 181.276 119.206C180.953 119.31 180.579 119.38 180.264 119.417L181.336 120.036C180.999 120.151 180.599 120.228 180.264 120.266L181.336 120.885C180.999 121 180.599 121.077 180.264 121.116L181.336 121.734C180.999 121.85 180.599 121.926 180.264 121.965L181.336 122.584C180.999 122.699 180.599 122.776 180.264 122.814L181.336 123.433C180.999 123.548 180.599 123.625 180.264 123.664L181.336 124.283C180.999 124.398 180.599 124.475 180.264 124.513L181.336 125.132C180.999 125.247 180.599 125.324 180.264 125.363L181.336 125.982C180.999 126.097 180.599 126.173 180.264 126.212L181.336 126.831C180.999 126.946 180.599 127.023 180.264 127.062L181.336 127.68C180.999 127.795 180.599 127.872 180.264 127.911L181.336 128.53C180.999 128.645 180.599 128.722 180.264 128.76L181.336 129.379C180.999 129.494 180.599 129.571 180.264 129.61L194.138 137.619C194.95 137.463 195.762 137.229 196.709 136.916C198.334 136.369 200.364 135.588 202.597 134.298C206.777 131.885 209.292 129.069 209.07 125.553C209.088 125.274 209.088 124.991 209.07 124.703C209.088 124.425 209.088 124.142 209.07 123.854C209.088 123.575 209.088 123.292 209.07 123.005C209.088 122.726 209.088 122.443 209.07 122.155C209.088 121.877 209.088 121.594 209.07 121.306C209.088 121.027 209.088 120.744 209.07 120.456C209.088 120.178 209.088 119.895 209.07 119.607C209.088 119.328 209.088 119.045 209.07 118.758C209.088 118.479 209.088 118.196 209.07 117.908C209.088 117.63 209.088 117.347 209.07 117.059C209.088 116.78 209.088 116.497 209.07 116.209C209.088 115.931 209.088 115.648 209.07 115.36C209.088 115.081 209.088 114.798 209.07 114.511C209.088 114.232 209.088 113.949 209.07 113.661C209.213 111.45 208.238 108.955 205.852 106.093L227.3 118.475L242.527 109.684L241.792 109.259L242.527 108.834L241.792 108.41L242.527 107.985L241.792 107.56L242.527 107.136L241.792 106.711L242.527 106.286L241.792 105.862L242.527 105.437L241.792 105.012L242.527 104.587L241.792 104.163L242.527 103.738L241.792 103.313L242.527 102.889L241.792 102.464L242.527 102.039L241.792 101.614L242.527 101.19L241.792 100.765L242.527 100.34L241.792 99.9156L242.5 99.5067L251.328 104.603L289.566 82.5284L288.83 82.1037L289.566 81.679L288.83 81.2543L289.566 80.8296L288.83 80.4049L289.566 79.9802L288.83 79.5555L289.566 79.1308L288.83 78.7061L289.566 78.2813L288.83 77.8566L289.566 77.4319L288.83 77.0072L289.566 76.5825L288.83 76.1578L289.566 75.7331L288.83 75.3084L289.566 74.8837L288.83 74.459L289.566 74.0343L288.83 73.6096L289.566 73.1849L288.83 72.7602L289.566 72.3355L288.83 71.9108L289.566 71.4861L288.83 71.0613L289.566 70.6366L288.83 70.2119L289.566 69.7872L277.046 62.5591L265.069 69.4732L264.466 69.1251L265.202 68.7004L264.466 68.2757L265.202 67.851L264.466 67.4263L265.202 67.0016L264.466 66.5769L265.202 66.1522L264.466 65.7275L265.202 65.3028L264.466 64.8781L265.202 64.4534L264.466 64.0287L265.202 63.604L264.466 63.1792L265.202 62.7545L261.01 60.3343L271.272 54.4099L304.772 73.7498L320 64.9589L319.264 64.5342L320 64.1095L319.264 63.6848L320 63.2601L319.264 62.8354L320 62.4107L319.264 61.986L320 61.5613L319.264 61.1366L320 60.7119L319.264 60.2872L320 59.8625L319.264 59.4378L320 59.0131L319.264 58.5883L320 58.1636L319.264 57.7389L320 57.3142L319.264 56.8895L320 56.4648L319.264 56.0401L320 55.6154L319.264 55.1907L320 54.766L319.264 54.3413L320 53.9166L319.264 53.4919L320 53.0672L319.264 52.6424L320 52.2177L297.535 39.2485L299.02 38.3911L298.284 37.9664L299.02 37.5416L298.284 37.1169L299.02 36.6922L298.284 36.2675L299.02 35.8428L298.284 35.4181L299.02 34.9934L298.284 34.5687L299.02 34.144L298.284 33.7193L299.02 33.2946L298.284 32.8699L299.02 32.4452L298.284 32.0205L299.02 31.5958L298.284 31.1711L299.02 30.7463L298.284 30.3216L299.02 29.8969L298.284 29.4722L299.02 29.0475L298.284 28.6228L299.02 28.1981L298.284 27.7734L299.02 27.3487L298.284 26.924L299.02 26.4993L298.284 26.0746ZM135.095 138.761C134.556 138.587 134.002 138.39 133.433 138.168C133.972 138.342 134.526 138.539 135.095 138.761ZM167.508 135.393C167.726 130.225 163.958 124.622 155.583 119.787C140.355 110.996 120.728 110.996 109.223 117.638C103.701 120.826 100.829 125.094 101.02 129.644C101.008 129.926 101.008 130.209 101.02 130.493C101.008 130.775 101.008 131.058 101.02 131.343C101.008 131.625 101.008 131.908 101.02 132.192C101.008 132.474 101.008 132.757 101.02 133.041C101.008 133.323 101.008 133.607 101.02 133.891C101.008 134.173 101.008 134.456 101.02 134.74C101.008 135.022 101.008 135.305 101.02 135.59C101.008 135.872 101.008 136.155 101.02 136.439C101.008 136.721 101.008 137.004 101.02 137.288C101.008 137.57 101.008 137.854 101.02 138.138C101.008 138.42 101.008 138.703 101.02 138.987C101.008 139.269 101.008 139.552 101.02 139.837C101.008 140.119 101.008 140.402 101.02 140.686C101.008 140.968 101.008 141.251 101.02 141.536C101.009 141.799 101.008 142.063 101.018 142.329C100.532 141.972 99.9949 141.622 99.402 141.28C91.01 136.435 76.7299 136.396 65.5631 142.843C58.3216 147.023 56.2235 151.595 56.0205 154.994C55.9972 155.343 55.994 155.69 56.0097 156.035C55.9967 156.32 55.9969 156.603 56.0097 156.885C55.9967 157.169 55.9969 157.453 56.0097 157.734C55.9967 158.019 55.9969 158.302 56.0097 158.583C55.9967 158.868 55.9969 159.151 56.0097 159.433C55.9967 159.718 55.9969 160.001 56.0097 160.282C55.9967 160.567 55.9969 160.85 56.0097 161.132C55.9967 161.416 55.9969 161.7 56.0097 161.981C55.9967 162.266 55.9969 162.549 56.0097 162.831C55.9967 163.115 55.9969 163.398 56.0097 163.68C55.9967 163.965 55.9969 164.248 56.0097 164.529C55.9967 164.814 55.9969 165.097 56.0097 165.379C55.9967 165.663 55.9969 165.947 56.0097 166.228C55.9967 166.513 55.9969 166.796 56.0097 167.078C55.9967 167.362 55.9969 167.645 56.0097 167.927C55.9198 169.89 56.4586 171.778 57.4417 173.556L75.7148 169.649C75.6555 169.376 75.5963 169.102 75.5485 168.835L75.7148 168.8L75.7147 168.8C75.6555 168.526 75.5963 168.253 75.5485 167.986L75.7148 167.951L75.7147 167.95C75.6555 167.677 75.5963 167.404 75.5485 167.137L75.7148 167.101C75.6921 166.996 75.6694 166.891 75.6473 166.787C75.8869 166.082 76.3838 165.356 77.4067 164.766C79.4737 163.572 81.7468 163.391 83.6864 164.168C83.5416 165.071 83.4647 166.004 83.4956 166.964C83.4868 167.245 83.4864 167.528 83.4956 167.813C83.4868 168.094 83.4864 168.377 83.4956 168.663C83.4868 168.944 83.4864 169.227 83.4956 169.512C83.4868 169.793 83.4864 170.076 83.4956 170.362C83.4868 170.642 83.4864 170.925 83.4956 171.211C83.4868 171.492 83.4864 171.775 83.4956 172.06C83.4868 172.341 83.4864 172.624 83.4956 172.91C83.4868 173.191 83.4864 173.474 83.4956 173.759C83.4868 174.04 83.4864 174.323 83.4956 174.609C83.4868 174.889 83.4864 175.173 83.4956 175.458C83.4868 175.739 83.4864 176.022 83.4956 176.308C83.4868 176.588 83.4864 176.871 83.4956 177.157C83.4868 177.438 83.4864 177.721 83.4956 178.006C83.4868 178.287 83.4864 178.57 83.4956 178.856C83.3465 183.595 85.6159 189.04 95.3413 194.654L132.226 173.361L131.49 172.936L132.226 172.512L131.49 172.087L132.226 171.662L131.49 171.237L132.226 170.813L131.49 170.388L132.226 169.963L131.49 169.539L132.226 169.114L131.49 168.689L132.226 168.265L131.49 167.84L132.226 167.415L131.49 166.99L132.226 166.566L131.49 166.141L132.226 165.716L131.49 165.292L132.226 164.867L131.49 164.442L132.226 164.017L131.49 163.593L131.662 163.493C142.008 164.96 152.203 163.391 159.305 159.291C164.827 156.103 167.699 151.834 167.508 147.285C167.52 147.003 167.52 146.72 167.508 146.436C167.52 146.154 167.52 145.871 167.508 145.586C167.52 145.304 167.52 145.021 167.508 144.737C167.52 144.455 167.52 144.172 167.508 143.888C167.52 143.606 167.52 143.322 167.508 143.038C167.52 142.756 167.52 142.473 167.508 142.189C167.52 141.907 167.52 141.624 167.508 141.339C167.52 141.057 167.52 140.774 167.508 140.49C167.52 140.208 167.52 139.925 167.508 139.64C167.52 139.359 167.52 139.075 167.508 138.791C167.52 138.509 167.52 138.226 167.508 137.942C167.52 137.66 167.52 137.377 167.508 137.092C167.52 136.81 167.52 136.527 167.508 136.243C167.52 135.961 167.52 135.678 167.508 135.393ZM105.121 151.108C106.861 153.004 109.168 154.862 112.073 156.626L105.125 160.637C105.124 160.549 105.122 160.461 105.118 160.374C105.129 160.091 105.13 159.807 105.118 159.524C105.129 159.241 105.13 158.958 105.118 158.675C105.129 158.392 105.13 158.109 105.118 157.825C105.129 157.542 105.13 157.259 105.118 156.976C105.129 156.693 105.13 156.41 105.118 156.127C105.129 155.843 105.13 155.56 105.118 155.277C105.129 154.994 105.13 154.711 105.118 154.428C105.129 154.145 105.13 153.861 105.118 153.578C105.129 153.295 105.13 153.012 105.118 152.729C105.129 152.446 105.13 152.163 105.118 151.88C105.128 151.622 105.13 151.365 105.121 151.108Z" fill="#E43232"/>
<path d="M102.109 161.529C101.5 156.488 110.84 147.033 99.402 140.431C91.01 135.586 76.7299 135.547 65.5631 141.993C58.3216 146.174 56.2235 150.745 56.0205 154.144C55.8852 156.176 56.4266 158.129 57.4417 159.966L75.7148 156.059C75.5794 155.434 75.4441 154.808 75.4441 154.261C75.5117 153.285 75.8501 152.074 77.4067 151.175C79.7754 149.807 82.4149 149.768 84.5129 150.98C91.6191 155.082 71.9925 167.585 95.3413 181.064L132.226 159.77L118.69 151.956L102.109 161.529Z" fill="#FFB240"/>
<path d="M145.769 137.886C142.724 139.645 136.633 139.645 128.173 134.761C119.713 129.877 119.713 126.361 122.759 124.602C125.804 122.844 131.895 122.844 140.355 127.728C148.815 132.612 148.815 136.128 145.769 137.886ZM159.305 145.7C170.81 139.059 170.81 127.728 155.583 118.937C140.355 110.146 120.728 110.146 109.223 116.788C97.718 123.43 97.718 134.761 112.945 143.552C128.173 152.342 147.8 152.342 159.305 145.7Z" fill="#FFB240"/>
<path d="M194.138 124.029C194.95 123.872 195.762 123.638 196.709 123.325C198.334 122.778 200.364 121.997 202.597 120.708C213.088 114.652 213.088 106.056 185.678 90.2327L193.799 85.5443L227.3 104.884L242.527 96.0933L195.153 68.744L156.915 90.8188L172.21 99.6487C187.708 108.596 187.641 112.542 183.648 114.847C182.903 115.277 182.091 115.589 181.347 115.785C181.008 115.902 180.602 115.98 180.264 116.019L194.138 124.029Z" fill="#FFB240"/>
<path d="M251.328 91.0126L289.566 68.9378L277.046 61.7098L254.035 74.9937L248.283 71.6727L265.202 61.9051L254.374 55.6539L237.454 65.4215L231.702 62.1005L254.035 49.2072L241.515 41.9792L203.954 63.6633L251.328 91.0126Z" fill="#FFB240"/>
<path d="M304.772 60.1592L320 51.3683L286.499 32.0285L299.02 24.8005L285.146 16.791L244.878 40.0379L258.752 48.0473L271.272 40.8193L304.772 60.1592Z" fill="#FFB240"/>
</svg>
