<svg width="48" height="48" viewBox="0 0 48 48" fill="none" xmlns="http://www.w3.org/2000/svg">
<path d="M14 11C14 12.1046 13.1046 13 12 13C10.8954 13 10 12.1046 10 11M14 11C14 9.89543 13.1046 9 12 9C10.8954 9 10 9.89543 10 11M14 11V27M10 11V27M12 29C10.8954 29 10 28.1046 10 27M12 29C13.1046 29 14 28.1046 14 27M12 29H2M10 27C10 25.8954 10.8954 25 12 25M12 25C13.1046 25 14 25.8954 14 27M12 25H2M36 33C37.1046 33 38 32.1046 38 31C38 29.8954 37.1046 29 36 29M36 33C34.8954 33 34 32.1046 34 31C34 29.8954 34.8954 29 36 29M36 33H46M36 29H46M34 17L38 13M33 21H38M30 18V13M22 3V33C22 39.6274 27.3726 45 34 45H46M46 41H35C30.0294 41 26 36.9706 26 32V3M19 11C19 14.866 15.866 18 12 18C8.13401 18 5 14.866 5 11C5 7.13401 8.13401 4 12 4C15.866 4 19 7.13401 19 11ZM19 27C19 30.866 15.866 34 12 34C8.13401 34 5 30.866 5 27C5 23.134 8.13401 20 12 20C15.866 20 19 23.134 19 27ZM43 31C43 34.866 39.866 38 36 38C32.134 38 29 34.866 29 31C29 27.134 32.134 24 36 24C39.866 24 43 27.134 43 31Z" stroke="#E43232" stroke-width="2"/>
</svg>
