<svg width="256" height="114" viewBox="0 0 256 114" fill="none" xmlns="http://www.w3.org/2000/svg">
<path d="M170.429 95.0548C160.993 89.6392 175.328 78.0788 160.902 69.7991C151.376 64.3314 132.323 64.3314 118.26 72.4028C109.006 77.7143 106.829 83.4424 107.01 87.7125C107.101 90.2641 108.008 92.7636 109.641 95.0548L130.962 90.6286C130.327 89.7433 129.964 88.806 129.964 87.8687C129.874 86.2544 130.509 84.1194 133.684 82.2968C137.313 80.2139 141.759 80.1618 144.571 81.7761C151.467 85.7337 139.128 94.7945 150.922 101.564C152.102 102.241 153.191 102.658 154.279 102.97C154.824 103.178 155.368 103.282 155.912 103.387L170.429 95.0548ZM166.346 111.458C170.973 114.114 178.05 114.114 183.131 111.198C188.211 108.282 188.211 104.22 183.584 101.564C178.957 98.9083 171.881 98.9083 166.8 101.824C161.719 104.741 161.719 108.802 166.346 111.458Z" fill="#132668"/>
<path fill-rule="evenodd" clip-rule="evenodd" d="M167.766 56.6813C167.775 56.3717 167.776 56.0615 167.766 55.7511C167.775 55.4415 167.776 55.1313 167.766 54.8208C167.874 51.0111 166.755 47.1119 160.902 43.7527C151.376 38.285 132.323 38.285 118.26 46.3564C109.018 51.6613 106.834 57.3818 107.01 61.6502C106.997 61.9671 106.997 62.2774 107.01 62.5804C106.997 62.8973 106.997 63.2076 107.01 63.5106C106.997 63.8275 106.997 64.1378 107.01 64.4408C106.997 64.7578 106.997 65.0681 107.01 65.3711C106.997 65.688 106.997 65.9983 107.01 66.3013C106.997 66.6182 106.997 66.9285 107.01 67.2315C106.997 67.5485 106.997 67.8588 107.01 68.1618C106.997 68.4787 106.997 68.789 107.01 69.092C106.997 69.4089 106.997 69.7192 107.01 70.0222C106.997 70.3392 106.997 70.6495 107.01 70.9525C106.997 71.2694 106.997 71.5797 107.01 71.8827C106.997 72.1996 106.997 72.5099 107.01 72.8129C106.997 73.1299 106.997 73.4402 107.01 73.7432C106.997 74.0601 106.997 74.3704 107.01 74.6734C106.996 74.9959 106.997 75.3116 107.01 75.6196C107.101 78.1712 108.008 80.6708 109.641 82.962L130.962 78.5357C130.768 78.2649 130.599 77.9892 130.458 77.7101L130.962 77.6055C130.768 77.3347 130.599 77.059 130.458 76.7799L130.962 76.6753C130.768 76.4044 130.599 76.1287 130.458 75.8496L130.962 75.745C130.768 75.4742 130.599 75.1985 130.458 74.9194L130.962 74.8148C130.768 74.544 130.599 74.2683 130.458 73.9892L130.962 73.8846C130.8 73.658 130.655 73.428 130.53 73.1955C130.56 73.1386 130.591 73.0816 130.624 73.0245L130.962 72.9543C130.909 72.8797 130.857 72.8046 130.807 72.7292C131.375 71.8744 132.282 71.0087 133.684 70.204C137.313 68.121 141.759 68.0689 144.571 69.6832C144.952 69.9014 145.273 70.1352 145.544 70.3832C145.544 70.5411 145.547 70.6992 145.555 70.8574C145.541 71.1667 145.54 71.4769 145.555 71.7876C145.541 72.0969 145.54 72.4072 145.555 72.7178C145.541 73.0272 145.54 73.3374 145.555 73.6481C145.541 73.9574 145.54 74.2676 145.555 74.5783C145.541 74.8876 145.54 75.1979 145.555 75.5085C145.541 75.8179 145.54 76.1281 145.555 76.4388C145.541 76.7481 145.54 77.0583 145.555 77.369C145.541 77.6783 145.54 77.9886 145.555 78.2992C145.541 78.6085 145.54 78.9188 145.555 79.2295C145.541 79.5388 145.54 79.849 145.555 80.1597C145.541 80.469 145.54 80.7793 145.555 81.0899C145.426 83.9426 146.4 86.8754 150.922 89.4712C152.102 90.1482 153.191 90.5647 154.279 90.8772C154.824 91.0855 155.368 91.1896 155.912 91.2938L155.912 91.2938L162.931 87.2654C162.928 87.4403 162.938 87.6148 162.96 87.7886C162.92 88.0997 162.921 88.4104 162.96 88.7189C162.92 89.0299 162.921 89.3406 162.96 89.6491C162.92 89.9602 162.921 90.2709 162.96 90.5793C162.92 90.8904 162.921 91.2011 162.96 91.5096C162.92 91.8206 162.921 92.1313 162.96 92.4398C162.92 92.7509 162.921 93.0616 162.96 93.37C162.92 93.6811 162.921 93.9918 162.96 94.3003C162.725 96.1304 163.877 97.948 166.346 99.3652C170.973 102.021 178.05 102.021 183.131 99.1048C185.961 97.4803 187.215 95.5004 186.97 93.6059C187.01 93.2949 187.01 92.9841 186.97 92.6757C187.01 92.3646 187.01 92.0539 186.97 91.7455C187.01 91.4344 187.01 91.1237 186.97 90.8152C187.01 90.5042 187.01 90.1935 186.97 89.885C187.01 89.5739 187.01 89.2632 186.97 88.9548C187.01 88.6437 187.01 88.333 186.97 88.0245C187.01 87.7135 187.01 87.4028 186.97 87.0943C187.01 86.7832 187.01 86.4725 186.97 86.1641C187.01 85.853 187.01 85.5423 186.97 85.2338C187.01 84.9228 187.01 84.612 186.97 84.3036C187.01 83.9925 187.01 83.6818 186.97 83.3734C187.01 83.0623 187.01 82.7516 186.97 82.4431C187.01 82.1321 187.01 81.8214 186.97 81.5129C187.01 81.2018 187.01 80.8911 186.97 80.5826C187.205 78.7524 186.054 76.9348 183.584 75.5176C179.887 73.3953 174.624 72.969 170.067 74.3717C169.926 74.2827 169.791 74.1921 169.662 74.1L170.429 73.6597C170.153 73.5015 169.898 73.3381 169.662 73.1697L170.429 72.7294C170.153 72.5713 169.898 72.4079 169.662 72.2395L170.429 71.7992C170.153 71.6411 169.898 71.4777 169.662 71.3093L170.429 70.869C170.153 70.7108 169.898 70.5474 169.662 70.379L170.429 69.9387C170.153 69.7806 169.898 69.6172 169.662 69.4488L170.429 69.0084C169.151 68.2752 168.309 67.4292 167.773 66.4941C167.774 66.324 167.772 66.1539 167.766 65.9836C167.775 65.674 167.776 65.3638 167.766 65.0534C167.775 64.7438 167.776 64.4336 167.766 64.1232C167.775 63.8136 167.776 63.5034 167.766 63.1929C167.775 62.8833 167.776 62.5732 167.766 62.2627C167.775 61.9531 167.776 61.6429 167.766 61.3325C167.775 61.0229 167.776 60.7127 167.766 60.4023C167.775 60.0927 167.776 59.7825 167.766 59.472C167.775 59.1624 167.776 58.8522 167.766 58.5418C167.775 58.2322 167.776 57.922 167.766 57.6116C167.775 57.302 167.776 56.9918 167.766 56.6813Z" fill="#E43232"/>
<path d="M170.429 68.0783C160.993 62.6626 175.328 51.1023 160.902 42.8226C151.376 37.3548 132.323 37.3548 118.26 45.4263C109.006 50.7378 106.829 56.4659 107.01 60.7359C107.101 63.2875 108.008 65.787 109.641 68.0783L130.962 63.652C130.327 62.7668 129.964 61.8294 129.964 60.8921C129.874 59.2778 130.509 57.1428 133.684 55.3202C137.313 53.2373 141.759 53.1852 144.571 54.7995C151.467 58.7571 139.128 67.8179 150.922 74.5875C152.102 75.2644 153.191 75.681 154.279 75.9935C154.824 76.2017 155.368 76.3059 155.912 76.41L170.429 68.0783ZM166.346 84.4814C170.973 87.1372 178.05 87.1372 183.131 84.2211C188.211 81.305 188.211 77.2432 183.584 74.5875C178.957 71.9317 171.881 71.9317 166.8 74.8478C161.719 77.764 161.719 81.8257 166.346 84.4814Z" fill="#FFB240"/>
<rect width="48.9887" height="48.9887" rx="8" transform="matrix(0.866044 -0.499967 0.866044 0.499967 0 74.4927)" fill="#2F48A5"/>
<rect width="48.9887" height="48.9887" rx="8" transform="matrix(0.866044 -0.499967 0.866044 0.499967 0 24.4927)" fill="#2F48A5"/>
<rect width="48.9887" height="48.9887" rx="8" transform="matrix(0.866044 -0.499967 0.866044 0.499967 171 24.4927)" fill="#2F48A5"/>
</svg>
