<svg width="256" height="99" viewBox="0 0 256 99" fill="none" xmlns="http://www.w3.org/2000/svg">
<rect width="48.9887" height="48.9887" rx="8" transform="matrix(0.866044 -0.499967 0.866044 0.499967 0 74.4928)" fill="#2F48A5"/>
<rect width="48.9887" height="48.9887" rx="8" transform="matrix(0.866044 -0.499967 0.866044 0.499967 0 24.4928)" fill="#2F48A5"/>
<rect width="48.9887" height="48.9887" rx="8" transform="matrix(0.866044 -0.499967 0.866044 0.499967 171 24.4928)" fill="#2F48A5"/>
<path d="M98.2917 83.7472H111.868L111.868 74.3419L128.16 74.3419V66.5043H111.868L111.868 57.099L98.2917 57.099L98.2917 66.5043L82 66.5043L82 74.3419H98.2917L98.2917 83.7472Z" fill="#132668"/>
<path d="M140.476 70.1057C143.327 70.1057 146.246 69.9881 149.233 69.5963C154.392 68.8909 160.841 67.3625 166.611 64.0315C178.49 57.1735 178.49 49.3358 170.684 44.8292C166.068 42.1644 160.773 41.8509 156.564 42.1644C154.052 42.3603 151.677 42.7914 149.301 43.4576C150.319 42.2427 150.93 41.0279 151.201 39.8522C151.744 37.7361 151.269 35.1888 147.264 32.8767C140.137 28.7619 127.239 28.7619 116.717 34.8361C111.287 37.9712 108.843 41.4198 107.757 44.163C107.078 45.7305 106.806 47.298 106.874 48.748L122.148 48.944C122.08 48.1994 122.148 47.4548 122.419 46.671C122.759 45.2994 123.845 43.6535 126.221 42.2819C129.683 40.2833 133.009 40.3225 135.385 41.6941C137.761 43.0657 137.829 44.9859 134.367 46.9845L129.615 49.7277L140.137 55.8019L144.888 53.0588C148.961 50.7074 153.034 50.7074 155.41 52.079C157.786 53.4506 157.786 55.8019 153.713 58.1532C150.794 59.8383 147.4 60.6221 144.753 60.9748C143.191 61.1708 141.63 61.2883 140.137 61.2883L140.476 70.1057Z" fill="#132668"/>
<path d="M122.144 40.9439L122.148 40.944C122.147 40.937 122.146 40.93 122.146 40.9231C122.184 40.5131 122.271 40.0979 122.419 39.671C122.759 38.2994 123.845 36.6535 126.221 35.2819C127.471 34.5602 128.703 34.1042 129.88 33.8807L130.481 34.2277L129.615 34.7277L130.481 35.2277L129.615 35.7277L130.481 36.2277L129.615 36.7277L130.481 37.2277L129.615 37.7277L130.481 38.2277L129.615 38.7277L130.481 39.2277L129.615 39.7277L130.481 40.2277L129.615 40.7277L130.481 41.2277L129.615 41.7277L130.481 42.2277L129.615 42.7277L140.137 48.8019L140.156 48.7908L140.175 49.2883L140.137 49.2883L140.175 50.2883L140.137 50.2883L140.175 51.2883L140.137 51.2883L140.175 52.2883L140.137 52.2883L140.175 53.2883L140.137 53.2883L140.175 54.2883C140.162 54.2883 140.149 54.2883 140.137 54.2883L140.476 63.1057C143.327 63.1057 146.246 62.9881 149.233 62.5963C154.392 61.8909 160.841 60.3625 166.611 57.0315C173.471 53.0711 176.369 48.7839 176.091 45.0002C176.115 44.6634 176.115 44.3299 176.091 44.0002C176.115 43.6634 176.115 43.3299 176.091 43.0002C176.115 42.6634 176.115 42.3299 176.091 42.0002C176.115 41.6634 176.115 41.3299 176.091 41.0002C176.115 40.6634 176.115 40.3299 176.091 40.0002C176.115 39.6634 176.115 39.3299 176.091 39.0002C176.115 38.6634 176.115 38.3299 176.091 38.0002C176.115 37.6634 176.115 37.3299 176.091 37.0002C176.115 36.6634 176.115 36.3299 176.091 36.0002C176.115 35.6634 176.115 35.3299 176.091 35.0002C176.115 34.6634 176.115 34.3299 176.091 34.0002C176.321 30.8356 174.375 27.9601 170.684 25.8292C166.068 23.1644 160.773 22.8509 156.564 23.1644C154.778 23.3037 153.06 23.562 151.363 23.9391C151.393 23.6201 151.394 23.2942 151.36 22.9633C151.393 22.6366 151.395 22.3025 151.36 21.9633C151.393 21.6366 151.395 21.3025 151.36 20.9632C151.393 20.6366 151.395 20.3025 151.36 19.9632C151.549 18.045 150.723 15.8732 147.264 13.8767C140.137 9.76192 127.239 9.76192 116.717 15.8361C111.287 18.9712 108.843 22.4198 107.757 25.163C107.078 26.7305 106.806 28.298 106.874 29.748L106.881 29.7481C106.861 30.0865 106.859 30.4203 106.874 30.748L106.881 30.7481C106.861 31.0865 106.859 31.4203 106.874 31.748L106.881 31.7481C106.861 32.0865 106.859 32.4203 106.874 32.748L106.881 32.7481C106.861 33.0865 106.859 33.4203 106.874 33.748L106.881 33.7481C106.861 34.0865 106.859 34.4203 106.874 34.748L106.881 34.7481C106.861 35.0865 106.859 35.4203 106.874 35.748L106.881 35.7481C106.861 36.0865 106.859 36.4203 106.874 36.748L106.881 36.7481C106.861 37.0865 106.859 37.4203 106.874 37.748L106.881 37.7481C106.874 37.8657 106.869 37.9827 106.867 38.099L98.2917 38.099L98.2917 47.5043L82 47.5043L82 67.3419H98.2917L98.2917 76.7472H111.868L111.868 67.3419L128.16 67.3419V47.5043H111.868L111.868 41.8121L122.148 41.944C122.117 41.6118 122.114 41.2796 122.144 40.9439Z" fill="#E43232"/>
<path d="M98.2917 63.7472H111.868L111.868 54.3419L128.16 54.3419V46.5043H111.868L111.868 37.099L98.2917 37.099L98.2917 46.5043L82 46.5043L82 54.3419H98.2917L98.2917 63.7472Z" fill="#FFB240"/>
<path d="M140.476 50.1057C143.327 50.1057 146.246 49.9881 149.233 49.5963C154.392 48.8909 160.841 47.3625 166.611 44.0315C178.49 37.1735 178.49 29.3358 170.684 24.8292C166.068 22.1644 160.773 21.8509 156.564 22.1644C154.052 22.3603 151.677 22.7914 149.301 23.4576C150.319 22.2427 150.93 21.0279 151.201 19.8522C151.744 17.7361 151.269 15.1888 147.264 12.8767C140.137 8.76192 127.239 8.76192 116.717 14.8361C111.287 17.9712 108.843 21.4198 107.757 24.163C107.078 25.7305 106.806 27.298 106.874 28.748L122.148 28.944C122.08 28.1994 122.148 27.4548 122.419 26.671C122.759 25.2994 123.845 23.6535 126.221 22.2819C129.683 20.2833 133.009 20.3225 135.385 21.6941C137.761 23.0657 137.829 24.9859 134.367 26.9845L129.615 29.7277L140.137 35.8019L144.888 33.0588C148.961 30.7074 153.034 30.7074 155.41 32.079C157.786 33.4506 157.786 35.8019 153.713 38.1532C150.794 39.8383 147.4 40.6221 144.753 40.9748C143.191 41.1708 141.63 41.2883 140.137 41.2883L140.476 50.1057Z" fill="#FFB240"/>
</svg>
