<svg width="42" height="27" viewBox="0 0 42 27" fill="none" xmlns="http://www.w3.org/2000/svg">
<path d="M28 6H35L37 9M28 6V4M28 6V20M28 4V1H1V4M28 4H1M1 4V20M41 15H31V9H37M41 15L37 9M41 15V20M28 20V23M28 20H15M28 23H13M28 23H31M1 20V23H7M1 20H5M13 23C13 24.6569 11.6569 26 10 26C8.34315 26 7 24.6569 7 23M13 23C13 21.3431 11.6569 20 10 20C8.34315 20 7 21.3431 7 23M31 23C31 24.6569 32.3431 26 34 26C35.6569 26 37 24.6569 37 23M31 23C31 21.3431 32.3431 20 34 20C35.6569 20 37 21.3431 37 23M37 23H41V20M41 20H39" stroke="#E43232" stroke-width="2"/>
</svg>
