<svg width="48" height="48" viewBox="0 0 48 48" fill="none" xmlns="http://www.w3.org/2000/svg">
<path d="M32 16L16 32M24 4L29.0746 8.36463L35.7426 7.81966L37.2855 14.3368L43 17.8197L40.4217 24L43 30.1803L37.2855 33.6632L35.7426 40.1803L29.0746 39.6354L24 44L18.9254 39.6354L12.2574 40.1803L10.7145 33.6632L5 30.1803L7.57826 24L5 17.8197L10.7145 14.3368L12.2574 7.81966L18.9254 8.36463L24 4ZM34 29C34 31.2091 32.2091 33 30 33C27.7909 33 26 31.2091 26 29C26 26.7909 27.7909 25 30 25C32.2091 25 34 26.7909 34 29ZM22 19C22 21.2091 20.2091 23 18 23C15.7909 23 14 21.2091 14 19C14 16.7909 15.7909 15 18 15C20.2091 15 22 16.7909 22 19Z" stroke="#323A56" stroke-width="2"/>
</svg>
