<svg width="260" height="222" viewBox="0 0 260 222" fill="none" xmlns="http://www.w3.org/2000/svg">
<g clip-path="url(#clip0)">
<rect width="1.63296" height="310.262" transform="matrix(0.866044 0.499967 -0.866044 0.499967 159.7 -18.9998)" fill="#FFA31C"/>
<rect width="1.63296" height="310.262" transform="matrix(0.866044 0.499967 -0.866044 0.499967 260.7 -111)" fill="#FFA31C"/>
<rect width="310.262" height="1.63296" transform="matrix(0.866044 0.499967 -0.866044 0.499967 159.7 -18.9998)" fill="#FFA31C"/>
<rect width="310.262" height="1.63296" transform="matrix(0.866044 0.499967 -0.866044 0.499967 130.002 -1.85498)" fill="#FFA31C"/>
<rect width="364.178" height="1.63296" transform="matrix(0.866044 0.499967 -0.866044 0.499967 53.6094 -11.6665)" fill="#FFA31C"/>
<rect width="384.916" height="1.63296" transform="matrix(0.866044 0.499967 -0.866044 0.499967 5.95117 -4.88965)" fill="#FFA31C"/>
<path d="M-22.4482 13.0056L309.606 204.701L308.192 205.517L-23.8625 13.822L-22.4482 13.0056Z" fill="#FFA31C"/>
<rect width="310.262" height="1.63296" transform="matrix(0.866044 0.499967 -0.866044 0.499967 11.208 66.7249)" fill="#FFA31C"/>
<rect width="310.262" height="1.63296" transform="matrix(0.866044 0.499967 -0.866044 0.499967 -18.4912 83.8696)" fill="#FFA31C"/>
<rect width="310.262" height="1.63296" transform="matrix(0.866044 0.499967 -0.866044 0.499967 -48.1895 101.015)" fill="#FFA31C"/>
<rect width="310.262" height="1.63296" transform="matrix(0.866044 0.499967 -0.866044 0.499967 -77.8877 118.16)" fill="#FFA31C"/>
<rect width="310.262" height="1.63296" transform="matrix(0.866044 0.499967 -0.866044 0.499967 -107.586 135.304)" fill="#FFA31C"/>
<rect width="1.63296" height="310.262" transform="matrix(0.866044 0.499967 -0.866044 0.499967 189.398 -1.85498)" fill="#FFA31C"/>
<rect width="1.63296" height="353.58" transform="matrix(0.866044 0.499967 -0.866044 0.499967 256.612 -6.36768)" fill="#FFA31C"/>
<rect width="1.63296" height="349.11" transform="matrix(0.866044 0.499967 -0.866044 0.499967 282.439 13.0122)" fill="#FFA31C"/>
<rect width="1.63296" height="310.262" transform="matrix(0.866044 0.499967 -0.866044 0.499967 278.494 49.5798)" fill="#FFA31C"/>
<rect width="1.63296" height="310.262" transform="matrix(0.866044 0.499967 -0.866044 0.499967 308.193 66.7249)" fill="#FFA31C"/>
<rect width="1.63296" height="310.262" transform="matrix(0.866044 0.499967 -0.866044 0.499967 337.891 83.8696)" fill="#FFA31C"/>
<rect width="1.63296" height="310.262" transform="matrix(0.866044 0.499967 -0.866044 0.499967 367.59 101.015)" fill="#FFA31C"/>
<rect width="1.63296" height="310.262" transform="matrix(0.866044 0.499967 -0.866044 0.499967 397.287 118.16)" fill="#FFA31C"/>
<rect width="1.63296" height="310.262" transform="matrix(0.866044 0.499967 -0.866044 0.499967 426.986 135.305)" fill="#FFA31C"/>
<path d="M140.764 36.1089L62 81.8515L109.258 109.297L156.517 81.8515L188.416 78.4208L175.42 70.8732L188.022 63.5544L140.764 36.1089Z" fill="#E8E8E8"/>
<path d="M140.764 37.2178L62 82.9604L109.258 110.406L156.517 82.9604L188.416 79.5297L175.42 71.9822L188.022 64.6633L140.764 37.2178Z" fill="#E8E8E8"/>
<path d="M140.764 38.3267L62 84.0693L109.258 111.515L156.517 84.0693L188.416 80.6386L175.42 73.0911L188.022 65.7723L140.764 38.3267Z" fill="#E8E8E8"/>
<path d="M140.764 39.4356L62 85.1782L109.258 112.624L156.517 85.1782L188.416 81.7475L175.42 74.2L188.022 66.8812L140.764 39.4356Z" fill="#E8E8E8"/>
<path d="M140.764 40.5445L62 86.2871L109.258 113.733L156.517 86.2871L188.416 82.8564L175.42 75.3089L188.022 67.9901L140.764 40.5445Z" fill="#E8E8E8"/>
<path d="M140.764 41.6534L62 87.396L109.258 114.842L156.517 87.396L188.416 83.9653L175.42 76.4178L188.022 69.099L140.764 41.6534Z" fill="#E8E8E8"/>
<path d="M140.764 42.7624L62 88.5049L109.258 115.95L156.517 88.5049L188.416 85.0742L175.42 77.5267L188.022 70.2079L140.764 42.7624Z" fill="#E8E8E8"/>
<path d="M140.764 43.8713L62 89.6138L109.258 117.059L156.517 89.6138L188.416 86.1831L175.42 78.6356L188.022 71.3168L140.764 43.8713Z" fill="#E8E8E8"/>
<path d="M140.764 44.9802L62 90.7227L109.258 118.168L156.517 90.7227L188.416 87.2921L175.42 79.7445L188.022 72.4257L140.764 44.9802Z" fill="#E8E8E8"/>
<path d="M140.764 46.0891L62 91.8317L109.258 119.277L156.517 91.8317L188.416 88.401L175.42 80.8534L188.022 73.5346L140.764 46.0891Z" fill="#E8E8E8"/>
<path d="M140.764 47.198L62 92.9406L109.258 120.386L156.517 92.9406L188.416 89.5099L175.42 81.9624L188.022 74.6435L140.764 47.198Z" fill="#E8E8E8"/>
<path d="M140.764 35L62 80.7426L109.258 108.188L156.517 80.7426L188.416 77.3119L175.42 69.7644L188.022 62.4455L140.764 35Z" fill="white"/>
<path d="M132.68 57.1782L87.5049 83.3537L90.6204 85.1589L135.795 58.9834L132.68 57.1782Z" fill="#4F4F4F"/>
<path d="M149.815 58.0808L96.8514 88.7693L99.9669 90.5745L152.931 59.886L149.815 58.0808Z" fill="#4F4F4F"/>
<path d="M143.584 72.5225L106.198 94.1849L109.313 95.9901L146.7 74.3277L143.584 72.5225Z" fill="#4F4F4F"/>
<path d="M132.68 54.9604L87.5049 81.1359L90.6204 82.9411L135.795 56.7657L132.68 54.9604Z" fill="#E8E8E8"/>
<path d="M149.815 55.8631L96.8514 86.5515L99.9669 88.3567L152.931 57.6683L149.815 55.8631Z" fill="#E8E8E8"/>
<path d="M143.584 70.3047L106.198 91.9671L109.313 93.7723L146.7 72.1099L143.584 70.3047Z" fill="#E8E8E8"/>
<path d="M71.7422 149.404L150.752 104.495L198.158 131.441L197.183 131.995L198.158 132.55L197.183 133.104L198.158 133.658L197.183 134.213L198.158 134.767L197.183 135.322L198.158 135.876L197.183 136.431L198.158 136.985L197.183 137.54L198.158 138.094L197.183 138.649L198.158 139.203L197.183 139.757L198.158 140.312L197.183 140.866L198.158 141.421L197.183 141.975L198.158 142.53L150.752 169.475L144.826 187.663L131.79 180.253L119.148 187.439L71.7422 160.493L72.7177 159.939L71.7422 159.384L72.7177 158.83L71.7422 158.276L72.7177 157.721L71.7422 157.167L72.7177 156.612L71.7422 156.058L72.7177 155.503L71.7422 154.949L72.7177 154.394L71.7422 153.84L72.7177 153.285L71.7422 152.731L72.7177 152.177L71.7422 151.622L72.7177 151.068L71.7422 150.513L72.7177 149.959L71.7422 149.404Z" fill="#841414"/>
<path d="M71.7422 148.295L150.752 103.386L198.158 130.332L150.752 157.277L144.826 175.465L131.79 168.055L119.148 175.241L71.7422 148.295Z" fill="#E43232"/>
<path d="M97.2471 150.654L150.825 120.02L153.977 121.822L100.399 152.456L97.2471 150.654Z" fill="#841414"/>
<path d="M106.702 156.06L152.401 129.931L155.552 131.733L109.854 157.862L106.702 156.06Z" fill="#841414"/>
<path d="M116.157 161.466L153.977 139.842L157.128 141.644L119.309 163.268L116.157 161.466Z" fill="#841414"/>
<path d="M97.2471 148.436L150.825 117.802L153.977 119.604L100.399 150.238L97.2471 148.436Z" fill="#E8E8E8"/>
<path d="M106.702 153.842L152.401 127.713L155.552 129.515L109.854 155.644L106.702 153.842Z" fill="#E8E8E8"/>
<path d="M116.157 159.248L153.977 137.624L157.128 139.426L119.309 161.05L116.157 159.248Z" fill="#E8E8E8"/>
</g>
<defs>
<clipPath id="clip0">
<rect width="260" height="222" fill="white"/>
</clipPath>
</defs>
</svg>
