<svg width="48" height="48" viewBox="0 0 48 48" fill="none" xmlns="http://www.w3.org/2000/svg">
<path d="M38 11V23C38 24.6569 38.8431 26 40.5 26M38 11H43V23C43 24.6569 42.1569 26 40.5 26M38 11V9C38 6.79086 37.5 5 35.5 5M35.5 5H10C8 5 7 6.79086 7 9V43L10.25 41L13.5 43L16.75 41L20 43L23.25 41L26.5 43L29.75 41L33 43V26M35.5 5C35.5 5 33 5 33 9C33 13 33 26 33 26M12 30V36M15 30V36M19 30V36M22 30V36M25 30V36M29 30V36M17 20V12H22C24.2091 12 26 13.7909 26 16C26 18.2091 24.2091 20 22 20H17ZM17 20H14M17 20V23M17 23V26M17 23H14M17 23H23M40.5 26H33" stroke="#E43232" stroke-width="2"/>
</svg>
