<svg width="32" height="32" viewBox="0 0 32 32" fill="none" xmlns="http://www.w3.org/2000/svg">
<circle cx="16" cy="16" r="16" fill="#1E3176"/>
<path d="M14.5968 16.9042C13.3069 15.6143 13.0156 14.3244 12.9499 13.8076C12.9316 13.6647 12.9808 13.5214 13.083 13.4199L14.1268 12.3765C14.2804 12.2231 14.3076 11.9839 14.1925 11.7999L12.5305 9.21916C12.4032 9.01534 12.1418 8.94178 11.9268 9.0493L9.25872 10.3059C9.08492 10.3915 8.98269 10.5761 9.00242 10.7688C9.14222 12.0969 9.72123 15.3617 12.9297 18.5704C16.1381 21.779 19.4025 22.3578 20.7313 22.4976C20.924 22.5173 21.1087 22.4151 21.1943 22.2413L22.4508 19.5732C22.5579 19.3587 22.4849 19.098 22.2819 18.9704L19.7012 17.3089C19.5172 17.1937 19.2781 17.2207 19.1245 17.3741L18.0811 18.418C17.9796 18.5202 17.8363 18.5694 17.6934 18.551C17.1766 18.4853 15.8867 18.1941 14.5968 16.9042Z" fill="white"/>
</svg>
