<svg width="76" height="74" viewBox="0 0 76 74" fill="none" xmlns="http://www.w3.org/2000/svg">
<path d="M33 73H29M33 73H39M33 73V55V41M39 73V2C39 1.44772 38.5523 1 38 1H34C33.4477 1 33 1.44772 33 2V41M39 73H43M33 41H6.16064C5.44293 41 4.78024 41.3846 4.42416 42.0077L1.56702 47.0077C1.21566 47.6226 1.21566 48.3774 1.56702 48.9923L4.42416 53.9923C4.78024 54.6154 5.44293 55 6.16065 55H29M12 46H26M12 50H20M39 21V7H65.8394C66.5571 7 67.2198 7.38457 67.5758 8.00772L70.433 13.0077C70.7843 13.6226 70.7843 14.3774 70.433 14.9923L67.5758 19.9923C67.2198 20.6154 66.5571 21 65.8394 21H43M46 12H60M46 16H54" stroke="#FFB240" stroke-width="2" stroke-linecap="round"/>
<path d="M43 27H69.8394C70.5571 27 71.2198 27.3846 71.5758 28.0077L74.433 33.0077C74.7843 33.6226 74.7843 34.3774 74.433 34.9923L71.5758 39.9923C71.2198 40.6154 70.5571 41 69.8394 41H43M50 32H64M50 36H58" stroke="#E43232" stroke-width="2" stroke-linecap="round"/>
</svg>
