<svg width="24" height="16" viewBox="0 0 24 16" fill="none" xmlns="http://www.w3.org/2000/svg">
<path d="M18.5812 0.293427C15.517 0.293427 13.0975 2.77785 13.0975 5.84208C13.0975 8.90631 15.6141 11.3907 18.6783 11.3907C18.709 11.3907 18.7552 11.3866 18.7859 11.3861C17.5743 12.3508 16.0526 12.9322 14.387 12.9322C13.6206 12.9322 13.004 13.5536 13.004 14.3194C13.004 15.0852 13.497 15.7065 14.2633 15.7065C19.7023 15.706 24 11.2811 24 5.84208V5.83844C24 2.77577 21.6444 0.293427 18.5812 0.293427Z" fill="#FFB240"/>
<path d="M5.58502 0.293427C2.52079 0.293427 0.0971534 2.77785 0.0971534 5.84208C0.0971534 8.90631 2.61171 11.3907 5.67646 11.3907C5.70711 11.3907 5.75231 11.3866 5.78296 11.3861C4.5714 12.3508 3.04916 12.9322 1.38353 12.9322C0.61721 12.9322 0 13.5536 0 14.3194C0 15.0852 0.500833 15.7065 1.26715 15.7065C6.70618 15.706 11.0116 11.2811 11.0116 5.84208V5.83844C11.0116 2.77577 8.64821 0.293427 5.58502 0.293427Z" fill="#FFB240"/>
</svg>
