<svg width="49" height="49" viewBox="0 0 49 49" fill="none" xmlns="http://www.w3.org/2000/svg">
<rect x="1" y="1" width="42" height="42" rx="7" stroke="#FFB240" stroke-width="2"/>
<path d="M18 30L17.2929 30.7071C17.4847 30.8989 17.7461 31.0045 18.0172 30.9999C18.2884 30.9952 18.546 30.8806 18.7311 30.6823L18 30ZM12.7071 23.2929C12.3166 22.9024 11.6834 22.9024 11.2929 23.2929C10.9024 23.6834 10.9024 24.3166 11.2929 24.7071L12.7071 23.2929ZM32.7311 15.6823C33.1079 15.2786 33.0861 14.6458 32.6823 14.2689C32.2786 13.8921 31.6458 13.9139 31.2689 14.3177L32.7311 15.6823ZM18.7071 29.2929L12.7071 23.2929L11.2929 24.7071L17.2929 30.7071L18.7071 29.2929ZM18.7311 30.6823L32.7311 15.6823L31.2689 14.3177L17.2689 29.3177L18.7311 30.6823Z" fill="#FFB240"/>
<path d="M11 44V44C11 46.2091 12.7909 48 15 48H38C43.5228 48 48 43.5228 48 38V15.0469C48 12.8118 46.1882 11 43.9531 11V11" stroke="#E43232" stroke-width="2"/>
</svg>
