<svg width="48" height="48" viewBox="0 0 48 48" fill="none" xmlns="http://www.w3.org/2000/svg">
<path d="M24 39L23.697 38.8909C16.09 36.1519 11 28.7947 11 20.5381V10.1353L12.4702 9.69413C19.9984 7.43529 28.0016 7.43529 35.5298 9.69413L37 10.1353V20.5381C37 28.7947 31.91 36.1519 24.303 38.8909L24 39ZM24 39V22M24 9V22M24 22H11M24 22H37M27 17L29 19L34 14M27 28.5L29 30.5L34 25.5M15 17L17 19L22 14M15 28.5L17 30.5L22 25.5M9.89168 6.03772L7 6.89073V19.9013C7 30.7364 13.8126 40.3938 24 44C34.1874 40.3938 41 30.7364 41 19.9013V6.89073L38.1083 6.03773C28.8978 3.32076 19.1022 3.32076 9.89168 6.03772Z" stroke="#E43232" stroke-width="2"/>
</svg>
