<svg width="256" height="99" viewBox="0 0 256 99" fill="none" xmlns="http://www.w3.org/2000/svg">
<rect width="48.9887" height="48.9887" rx="8" transform="matrix(0.866044 -0.499967 0.866044 0.499967 0 74.4927)" fill="#2F48A5"/>
<rect width="48.9887" height="48.9887" rx="8" transform="matrix(0.866044 -0.499967 0.866044 0.499967 0 24.4927)" fill="#2F48A5"/>
<rect width="48.9887" height="48.9887" rx="8" transform="matrix(0.866044 -0.499967 0.866044 0.499967 171 24.4927)" fill="#2F48A5"/>
<path d="M131.094 68.1228C129.405 69.0977 126.366 69.2927 124.001 67.9278C121.637 66.5629 121.975 64.808 123.664 63.8331C125.352 62.8581 128.392 62.6632 130.757 64.0281C133.121 65.393 132.783 67.1479 131.094 68.1228ZM141.565 67.1479C143.051 67.3039 144.469 67.3429 145.888 67.2259C148.387 67.0309 151.697 66.3679 154.737 64.613C162.506 60.1283 162.573 53.9277 153.724 48.8191C139.538 40.6296 116.571 40.6296 100.358 49.989C85.1593 58.7634 85.1593 72.8025 100.021 81.3819C114.882 89.9614 139.2 89.9614 154.4 81.187C160.006 77.9502 162.979 74.5964 164.532 72.0615C165.478 70.5796 166.086 69.1367 166.221 67.7328L154.737 66.9529C154.535 67.9278 154.129 68.9418 153.454 70.0337C152.305 71.8666 150.144 74.2844 146.293 76.5073C136.228 82.3179 119.34 82.3959 108.802 76.3123C98.3318 70.2677 98.3994 60.4793 108.465 54.6687C119.611 48.2341 135.147 48.2341 144.942 53.8887C149.333 56.4236 149.401 58.3344 147.307 59.5434C145.213 60.7523 142.578 60.7133 140.214 59.3484L127.379 51.9389L118.597 57.0085L120.624 58.1785L120.286 58.3734C119.543 58.3344 118.665 58.3734 117.854 58.4514C116.368 58.6074 114.342 59.0754 112.518 60.1283C107.451 63.0531 107.384 68.4738 115.22 72.9975C123.056 77.5212 132.445 77.4822 137.849 74.3624C140.551 72.8025 141.362 71.0866 141.565 69.7217C141.7 68.9418 141.632 68.1228 141.227 67.3429L141.565 67.1479Z" fill="#132668"/>
<path fill-rule="evenodd" clip-rule="evenodd" d="M88.9262 44.354C88.9133 44.6874 88.9133 45.0209 88.9262 45.354C88.9133 45.6874 88.9133 46.0209 88.9262 46.354C88.9133 46.6874 88.9133 47.0209 88.9262 47.354C88.9133 47.6874 88.9133 48.0209 88.9262 48.354C88.9133 48.6874 88.9133 49.0209 88.9262 49.354C88.9133 49.6874 88.9133 50.0209 88.9262 50.354C88.9133 50.6874 88.9133 51.0209 88.9262 51.354C88.9133 51.6874 88.9133 52.0209 88.9262 52.354C88.9133 52.6874 88.9133 53.0209 88.9262 53.354C88.9133 53.6874 88.9133 54.0209 88.9262 54.354C88.9133 54.6874 88.9133 55.0209 88.9262 55.354C88.9133 55.6874 88.9133 56.0209 88.9262 56.354C88.7004 62.1682 92.4136 67.9902 100.021 72.3817C114.882 80.9612 139.2 80.9612 154.4 72.1867C160.006 68.95 162.979 65.5962 164.532 63.0613C165.478 61.5794 166.086 60.1365 166.221 58.7326L166.051 58.7211C166.132 58.3895 166.19 58.06 166.221 57.7326L166.051 57.7211C166.132 57.3895 166.19 57.06 166.221 56.7326L166.051 56.7211C166.132 56.3895 166.19 56.06 166.221 55.7326L166.051 55.7211C166.132 55.3895 166.19 55.06 166.221 54.7326L166.051 54.7211C166.132 54.3895 166.19 54.06 166.221 53.7326L166.051 53.7211C166.132 53.3895 166.19 53.06 166.221 52.7326L166.051 52.7211C166.132 52.3895 166.19 52.06 166.221 51.7326L166.051 51.7211C166.132 51.3895 166.19 51.06 166.221 50.7326L166.051 50.7211C166.132 50.3895 166.19 50.06 166.221 49.7326L166.051 49.7211C166.132 49.3895 166.19 49.06 166.221 48.7326L166.051 48.7211C166.132 48.3895 166.19 48.06 166.221 47.7326L166.051 47.7211C166.132 47.3895 166.19 47.06 166.221 46.7326L166.051 46.7211C166.132 46.3895 166.19 46.06 166.221 45.7326L166.051 45.7211C166.132 45.3895 166.19 45.06 166.221 44.7326L160.465 44.3417C160.471 44.123 160.465 43.9037 160.444 43.684C160.475 43.352 160.475 43.0185 160.444 42.684C160.475 42.352 160.475 42.0185 160.444 41.684C160.475 41.352 160.475 41.0185 160.444 40.684C160.475 40.352 160.475 40.0185 160.444 39.684C160.475 39.352 160.475 39.0185 160.444 38.684C160.475 38.352 160.475 38.0185 160.444 37.684C160.475 37.352 160.475 37.0185 160.444 36.684C160.475 36.352 160.475 36.0185 160.444 35.684C160.475 35.352 160.475 35.0185 160.444 34.684C160.718 31.7074 158.544 28.6012 153.724 25.8189C139.538 17.6294 116.571 17.6294 100.358 26.9888C92.4931 31.5294 88.698 37.4799 88.9262 43.354C88.9133 43.6874 88.9133 44.0209 88.9262 44.354ZM103.824 49.3475C105.074 50.7755 106.732 52.117 108.802 53.3121C108.862 53.3465 108.922 53.3808 108.982 53.4148C108.975 53.1956 108.983 52.9785 109.006 52.7641C108.971 52.4256 108.971 52.0918 109.006 51.7641C108.971 51.4256 108.971 51.0918 109.006 50.7641C108.971 50.4256 108.971 50.0918 109.006 49.7641C108.971 49.4256 108.971 49.0918 109.006 48.7641C108.971 48.4256 108.971 48.0918 109.006 47.7641C108.971 47.4256 108.971 47.0918 109.006 46.7641C108.971 46.4256 108.971 46.0918 109.006 45.7641C108.992 45.6343 108.984 45.5051 108.981 45.3767C108.808 45.4725 108.636 45.5697 108.465 45.6685C106.557 46.7695 105.009 48.0133 103.824 49.3475Z" fill="#E43232"/>
<path d="M131.094 44.1228C129.405 45.0977 126.366 45.2927 124.001 43.9278C121.637 42.5629 121.975 40.808 123.664 39.8331C125.352 38.8581 128.392 38.6632 130.757 40.0281C133.121 41.393 132.783 43.1479 131.094 44.1228ZM141.565 43.1479C143.051 43.3039 144.469 43.3429 145.888 43.2259C148.387 43.0309 151.697 42.3679 154.737 40.613C162.506 36.1283 162.573 29.9277 153.724 24.8191C139.538 16.6296 116.571 16.6296 100.358 25.989C85.1593 34.7634 85.1593 48.8025 100.021 57.3819C114.882 65.9614 139.2 65.9614 154.4 57.187C160.006 53.9502 162.979 50.5964 164.532 48.0615C165.478 46.5796 166.086 45.1367 166.221 43.7328L154.737 42.9529C154.535 43.9278 154.129 44.9418 153.454 46.0337C152.305 47.8666 150.144 50.2844 146.293 52.5073C136.228 58.3179 119.34 58.3959 108.802 52.3123C98.3318 46.2677 98.3994 36.4793 108.465 30.6687C119.611 24.2341 135.147 24.2341 144.942 29.8887C149.333 32.4236 149.401 34.3344 147.307 35.5434C145.213 36.7523 142.578 36.7133 140.214 35.3484L127.379 27.9389L118.597 33.0085L120.624 34.1785L120.286 34.3734C119.543 34.3344 118.665 34.3734 117.854 34.4514C116.368 34.6074 114.342 35.0754 112.518 36.1283C107.451 39.0531 107.384 44.4738 115.22 48.9975C123.056 53.5212 132.445 53.4822 137.849 50.3624C140.551 48.8025 141.362 47.0866 141.565 45.7217C141.7 44.9418 141.632 44.1228 141.227 43.3429L141.565 43.1479Z" fill="#FFB240"/>
</svg>
