<svg width="48" height="48" viewBox="0 0 48 48" fill="none" xmlns="http://www.w3.org/2000/svg">
<path d="M8 30H6V20H21M8 30L5 44H13C13.5523 44 14 43.5523 14 43V42C14 41.4477 13.5523 41 13 41H12L13.2727 34M8 30H14M21 30V20M21 30L30 27M21 30H16M21 20H30V21M30 42H28M30 42H33M30 42V32M33 42H35M33 42V32M30 21H33M30 21V27M33 21H36L38 24M33 21V27M30 27V32M30 27H33M30 32H33M30 32H28M33 32H35M33 32V27M38 24L36 27H33M38 24H45M13.2727 34L14 30M13.2727 34H15.7192C16.3698 34 16.8472 33.3886 16.6894 32.7575L16 30M14 30H16M17 23V27M14 23V27M36 14V10M36 14V17H41V7L36 4V10M36 14H16M36 10H16M16 10H6V14H16M16 10V14" stroke="#E43232" stroke-width="2"/>
</svg>
