<svg width="48" height="48" viewBox="0 0 48 48" fill="none" xmlns="http://www.w3.org/2000/svg">
<path d="M8 16C10.7614 16 13 13.7614 13 11C13 8.23858 10.7614 6 8 6M8 16C5.23858 16 3 13.7614 3 11C3 8.23858 5.23858 6 8 6M8 16H40C42.7614 16 45 13.7614 45 11C45 8.23858 42.7614 6 40 6L8 6M8 29C10.7614 29 13 26.7614 13 24C13 21.2386 10.7614 19 8 19M8 29C5.23858 29 3 26.7614 3 24C3 21.2386 5.23858 19 8 19M8 29H18M8 19H18M40 29C42.7614 29 45 26.7614 45 24C45 21.2386 42.7614 19 40 19M13 16C15.7614 16 18 18.2386 18 21V42H40V21C40 18.2386 37.7614 16 35 16M8 13C9.10457 13 10 12.1046 10 11C10 9.89543 9.10457 9 8 9C6.89543 9 6 9.89543 6 11C6 12.1046 6.89543 13 8 13ZM8 26C9.10457 26 10 25.1046 10 24C10 22.8954 9.10457 22 8 22C6.89543 22 6 22.8954 6 24C6 25.1046 6.89543 26 8 26Z" stroke="#E43232" stroke-width="2"/>
</svg>
