<svg width="48" height="48" viewBox="0 0 48 48" fill="none" xmlns="http://www.w3.org/2000/svg">
<path d="M18 34V41H21V44H26V41H36V44H41V41H44V17H18V34ZM18 34H16C14.3431 34 13 35.3431 13 37V40.5C13 41.8807 11.8807 43 10.5 43V43C9.11929 43 8 41.8807 8 40.5V31M8 31L11 28V21M8 31L5 28V21M11 21V17H8M11 21H5M5 21V17H8M8 17V7H18M18 7V6.6185C18 5.29975 19.254 4.34199 20.5262 4.68897L29 7L20.5262 9.31103C19.254 9.65801 18 8.70025 18 7.3815V7ZM32 31H41M32 36H41M39 26H41M39 22H41M23 22V26H34V22H23ZM27 33.5V33.5C27 34.6046 26.1046 35.5 25 35.5V35.5C23.8954 35.5 23 34.6046 23 33.5V33.5C23 32.3954 23.8954 31.5 25 31.5V31.5C26.1046 31.5 27 32.3954 27 33.5Z" stroke="#E43232" stroke-width="2"/>
</svg>
