<svg width="50" height="59" viewBox="0 0 50 59" fill="none" xmlns="http://www.w3.org/2000/svg">
<path d="M49.5 34C49.5026 38.9572 48.0165 43.801 45.2343 47.9038C42.452 52.0066 38.5019 55.1794 33.8955 57.0112C29.2892 58.8429 24.2389 59.2493 19.3989 58.1775C14.559 57.1057 10.1524 54.6052 6.75 51C19.09 50.56 30.92 51.14 30.92 51.14C30.92 51.14 29.49 46.3 23.07 45C19.5 44.31 10.8 43.87 2.12 44C1.68071 43.0281 1.31306 42.0255 1.02 41C16.09 38.32 42.36 39.59 42.36 39.59C42.36 39.59 40.93 34.75 34.51 33.49C29 32.53 11 32.05 0 33.49C0.0734414 31.921 0.335322 30.3665 0.78 28.86C11.3912 28.2111 22.0293 28.1209 32.65 28.59C32.65 28.59 31.21 23.74 24.78 22.5C21.23 21.81 12.58 21.36 3.92 21.5C4.65 20.18 5.46 18.87 6.31 17.59C20.09 16.82 35 17.54 35 17.54C35 17.54 33.57 12.68 27.13 11.44C22.048 10.7318 16.9209 10.3976 11.79 10.44C17 4.38 22.49 0 24.75 0C29.84 0 49.5 20.34 49.5 34Z" fill="#253D93"/>
</svg>
